<?xml version="1.0" encoding="utf-8"?>
<svg id="master-artboard" viewBox="0 0 1400 452.05279541015625" version="1.1" xmlns="http://www.w3.org/2000/svg" x="0px" y="0px" style="enable-background:new 0 0 1400 980;" width="1400px" height="452.05279541015625px"><rect id="ee-background" x="0" y="0" width="1400" height="452.05279541015625" style="fill: white; fill-opacity: 0; pointer-events: none;"/><g transform="matrix(-24.00976741123148, 0, 0, 24.00976741123148, 1401.013801984271, 3.104593169860163)"><path d="m0.45026,1.62781c0.001,-0.09 0.012,-0.134 0.031,-0.191c1.291,0 2.582,0 3.871,0c-0.199,-0.335 0.008,-0.425 0.033,-0.606c-0.002,-0.275 0.01,-0.551 0.063,-0.736c0.277,-0.053 0.826,-0.101 1.152,-0.033c0.276,0.06 0.692,0.033 1.024,0.033c0.649,0 1.3,0 1.95,0c0.535,0 1.063,-0.026 1.377,0.189c0.053,0.076 0.107,0.15 0.158,0.225c-0.013,0.066 -0.006,0.063 -0.031,0.096c-0.095,0.274 -0.413,0.214 -0.641,0.355c-0.308,0 -0.618,0 -0.926,0c0.15,0.293 0.391,0.535 0.574,0.797c0.449,0.636 0.904,1.264 1.345,1.891c1.233,1.753 2.443,3.494 3.679,5.243c0.494,0.703 1.004,1.4 1.504,2.113c0.192,0.273 0.436,0.531 0.608,0.832c2.44,0.107 4.884,0.211 7.325,0.32c1.396,-0.32 2.933,-0.311 4.318,-0.643c0.395,-0.041 0.79,-0.082 1.184,-0.125c0.885,-0.211 1.906,-0.207 2.784,-0.416c0.234,-0.021 0.469,-0.045 0.704,-0.063c0.841,-0.143 1.684,-0.279 2.527,-0.418c-0.004,-0.117 -0.015,-0.283 0.031,-0.354c-0.002,-0.174 0.011,-0.283 0.064,-0.385c0.1,0.006 0.203,0.008 0.254,-0.031c0.102,0.004 0.166,0.012 0.225,0.031c0.045,0.215 0.086,0.428 0.129,0.641c0.512,-0.064 1.068,-0.191 1.536,-0.318c0.896,-0.238 1.826,-0.289 2.687,-0.512c0.908,-0.234 1.832,-0.217 2.752,-0.445c0.496,-0.127 1.07,-0.139 1.599,-0.258c0.171,0 0.343,0 0.513,0c0.382,-0.088 1.115,-0.096 1.504,0c0.783,0.191 1.443,0.461 2.017,0.861c0.172,0.123 0.331,0.305 0.51,0.416c0.479,0.303 0.985,0.504 1.472,0.803c0.213,0.127 0.436,0.314 0.673,0.416c0.289,0.121 0.589,0.121 0.897,0.223c0.68,0.225 1.383,0.389 2.045,0.67c0.586,0.25 1.194,0.582 1.762,0.832c0.496,0.223 0.971,0.416 1.406,0.706c0.373,0.25 0.709,0.605 1.088,0.83c0.002,0.455 -0.795,0.6 -1.15,0.738c-0.79,0.301 -1.709,0.391 -2.625,0.605c-0.367,0.088 -0.678,0.014 -1.055,0.098c-0.352,0.076 -0.793,0.137 -1.184,0.127c0,0.219 -0.027,0.367 -0.066,0.514c-0.099,0.023 -0.291,0.063 -0.383,0c-0.146,-0.072 -0.139,-0.26 -0.127,-0.48c-1.195,0.053 -2.389,0.109 -3.584,0.16c0.007,0.268 0.006,0.449 -0.128,0.578c-0.109,0.082 -0.24,0.049 -0.383,0.031c-0.079,-0.16 -0.104,-0.342 -0.096,-0.609c-1.365,0.002 -2.647,0 -4.063,0c-0.318,0 -1.373,0.088 -1.568,-0.033c-0.477,-0.018 -0.475,0.293 -0.607,0.611c-0.784,0.156 -1.797,0.072 -2.623,0.254c-0.326,0.07 -0.674,0 -0.961,0.064c-0.458,0.1 -0.953,0 -1.375,0.092c-0.224,0 -0.445,0 -0.672,0c-0.487,0.047 -1.127,-0.004 -1.601,0.098c-0.233,0 -0.47,0 -0.704,0c-0.492,0.029 -1.152,-0.006 -1.631,0.096c-0.271,0.061 -0.716,-0.096 -0.928,0.033c-0.539,-0.016 -0.51,-0.061 -0.767,0.223c0,0.023 0.00805,0.05431 0,0.066c-0.00805,0.01169 -7.752,0.522 -7.103,0.45c-0.17,-0.107 -0.658,-0.033 -0.896,-0.033c-0.817,0 -1.773,-0.088 -2.495,0.061c-0.293,0.064 -0.878,-0.063 -1.087,0.066c-0.125,0.002 -0.309,0.02 -0.386,-0.031c-0.103,-0.139 -0.156,-0.529 -0.159,-0.734c-0.726,-0.012 -1.451,-0.023 -2.174,-0.033c-0.045,0.213 -0.086,0.426 -0.129,0.639c-0.011,0 -0.021,0 -0.033,0c0,0.014 0,0.02 0,0.033c-0.191,0 -0.383,0 -0.575,0c-0.03,-0.02 -0.304,-0.635 -0.319,-0.705c-0.554,-0.01 -1.109,-0.02 -1.663,-0.033c-0.025,0.184 -0.089,0.375 -0.161,0.514c-0.584,0.025 -0.619,-0.082 -0.703,-0.545c-0.658,-0.047 -1.476,0.014 -2.111,-0.127c-0.199,-0.043 -0.482,0.002 -0.641,-0.035c-0.225,0 -0.449,0 -0.67,0c-0.428,-0.094 -0.908,-0.012 -1.346,-0.125c-1.029,-0.268 -2.123,-0.473 -3.072,-0.863c-0.259,-0.109 -0.552,-0.201 -0.831,-0.32c-0.118,-0.049 -0.261,-0.182 -0.383,-0.223c-0.312,0 -0.62,0 -0.929,0c-0.342,-0.08 -0.892,-0.102 -1.215,-0.131c0,-0.01 0,-0.02 0,-0.031c-0.012,0 -0.021,0 -0.033,0c-0.01,-0.096 -0.026,-0.109 0.033,-0.191c0,-0.012 -0.16801,0.56829 0,-0.033c0.16801,-0.60129 0.32053,-1.16518 0.286,-1.793c-0.03453,-0.62782 -0.426,-7.487 -0.639,-11.227c-0.1,0 -0.201,0.003 -0.256,-0.034c-0.105,-0.041 -0.096,-0.088 -0.162,-0.161c0.013,-0.098 0.037,-0.176 0.064,-0.254c0.116,-0.029 0.171,-0.061 0.32,-0.064c0.006,-0.112 0.01,-0.232 -0.028,-0.292zm3.233,0.417c0.274,0.457 0.613,0.896 0.895,1.343c0.101,0.159 0.146,0.336 0.288,0.448c0,0.021 0,0.043 0,0.064c0.012,0 0.02,0 0.03,0c-0.039,-0.617 -0.083,-1.236 -0.128,-1.855c-0.363,0 -0.726,0 -1.085,0z" transform="rotate(-0.199695 29.1608 9.22989)"/></g></svg>