<svg xmlns="http://www.w3.org/2000/svg" viewBox="0 0 162.38 58.11">
  <path d="M162.38,0H150.16L116.83,22.77,97.39,28.66l3.88,0h0l-16.84-.19-32-3.88c-19.46-6.34-31.77-2.11-35.74,4.62l-.91.18h0l-.1,0-.24.05h0l-.3.06L14,29.81l-1.07.25-1.15.28-1.09.28-1.1.31c-.38.1-.74.22-1.11.33l-1,.32L6.29,32l-.94.33c-.38.14-.75.3-1.12.45s-.56.21-.82.33c-.41.17-.79.36-1.17.54-.2.1-.43.19-.63.3-.5.25-1,.51-1.41.78h0l-.17.1H0c.44.18.87.32,1.29.46l.63.23L3,35.81l.81.23.74.16c.38.08.76.18,1.14.25l.4.06c.5.09,1,.17,1.51.24l.4,0L9.58,37,10,37c1.88.15,3.88.21,6.12.24l13.52.18,3,2.61h0l3.64,3.13h0l.15.13h0l.87.75h4V46.5h2.09v4.18h-.31V51h.31v.69l-.25.3h-.06v.07l-1.53,1.84h0l-.1.17,0,0h0l0,.11,1.53.85a2.07,2.07,0,0,0-.12.56,2.51,2.51,0,1,0,2.51-2.5,2.11,2.11,0,0,0-.5.1V52h-.31V51h.31v-.31h-.31V46.5h9.85V44.07H87.23l-.29.5H84.07a.94.94,0,0,0-.93.94.92.92,0,0,0,.42.76v0l.05,0a.9.9,0,0,0,.45.13H94.56l-.24.4H91.46a1,1,0,0,0-.94.94.91.91,0,0,0,.43.76,0,0,0,0,0,0,0H91a.85.85,0,0,0,.45.14h14.68v1.34h.37v.48a4.94,4.94,0,0,0-.64.15,3.84,3.84,0,1,0,3.6.65L111,49.66h1l-.77-.94h.37a.94.94,0,0,0,.89-1.24h0a.94.94,0,0,0-.88-.64h-2l0,0h1.63l.78-1h-3.13v-.29h-.33l0,0v-1l.15-.16,19.71,2.79h.23l13.56-1.2a1,1,0,0,0,1-1V44h0v-1.4h0V41.26l4.39-.59v-.05l4.72.18.35-9.73-4.72-.17v0l-6.78-1.42L141,31.3h0l0,1h0l0-1h0l.06-1.87-6.1-.22v0l18.69-.44a1.06,1.06,0,0,0,1-.57l.28-.55h0l2.26-4.46h-4.08ZM41.87,54.07l1.21-1.46v.82h.31V54a2.48,2.48,0,0,0-.44.68Zm64.33-7.23.3-.3v.3Zm2.68,4.09-.32-.14V50h.37v-.38H110Zm-.2-4.09h-.15v0h.13Zm32.11-9.46-.07,1.94h0l.17-4.67h0l-.1,2.73Z"/>
</svg>