<?xml version="1.0" encoding="utf-8"?>
<svg viewBox="0 0 122.5 54.33" xmlns="http://www.w3.org/2000/svg">
  <path d="M 122.318 21.337 L 121.628 27.537 C 121.587 27.887 121.29 28.149 120.938 28.147 L 84.468 28.147 C 84.093 28.152 83.789 28.452 83.778 28.827 L 83.718 31.217 C 83.707 31.59 83.401 31.887 83.028 31.887 L 82.188 31.887 L 82.188 32.787 L 117.948 32.787 C 118.708 32.787 119.318 33.077 119.428 33.457 C 119.502 33.565 119.524 33.701 119.488 33.827 L 115.738 46.887 C 115.704 47.05 115.579 47.178 115.418 47.217 L 109.888 48.747 L 109.768 48.747 L 96.508 48.747 C 96.256 48.742 96.053 48.539 96.048 48.287 L 96.048 48.117 L 95.048 48.117 L 95.048 48.297 C 95.048 48.551 94.842 48.757 94.588 48.757 L 73.958 48.757 L 73.818 48.757 L 61.718 44.897 C 61.523 44.839 61.389 44.661 61.388 44.457 L 61.388 39.837 L 61.158 39.837 C 61.158 40.072 60.973 40.266 60.738 40.277 L 44.018 40.277 C 43.785 40.261 43.603 40.07 43.598 39.837 L 43.358 39.837 C 43.353 40.07 43.171 40.261 42.938 40.277 L 26.218 40.277 C 25.983 40.266 25.798 40.072 25.798 39.837 L 25.558 39.837 C 25.553 40.07 25.371 40.261 25.138 40.277 L 18.818 40.277 L 18.818 40.367 L 37.998 42.867 L 37.818 43.477 L 37.588 44.737 L 17.968 41.997 L 17.818 42.337 L 53.458 47.217 L 41.818 45.637 L 41.478 45.637 L 38.478 45.227 L 38.948 41.807 L 55.948 44.137 L 58.818 47.977 L 53.818 47.287 L 73.108 49.947 L 73.108 50.297 L 73.168 49.917 L 80.228 51.997 L 87.298 54.077 L 79.928 54.167 L 72.548 54.217 L 72.698 53.217 L 72.608 53.617 L 72.518 54.217 L 15.738 46.407 L 15.178 47.507 L 8.818 46.287 L 8.948 45.477 L 5.868 45.057 L 4.028 50.217 L 2.028 49.947 L 2.818 44.627 L -0.182 44.217 L -0.092 43.577 L -0.092 43.117 L 0.218 40.847 L 0.348 39.937 L 3.348 40.347 L 4.088 34.927 L 6.088 35.197 L 6.498 40.777 L 9.678 41.217 L 9.828 40.267 L 8.418 40.267 C 8.173 40.256 7.982 40.052 7.988 39.807 L 7.988 33.657 C 7.993 33.42 8.181 33.227 8.418 33.217 L 25.138 33.217 C 25.383 33.228 25.574 33.432 25.568 33.677 L 25.568 33.717 L 25.818 33.717 L 25.818 33.667 C 25.812 33.422 26.003 33.218 26.248 33.207 L 41.978 33.207 L 41.978 31.857 L 25.398 31.857 C 25.167 31.861 24.951 31.743 24.828 31.547 L 17.258 20.127 C 17.098 20.127 16.928 20.127 16.778 20.037 L 13.878 20.037 L 11.578 18.807 L 13.578 18.247 C 13.027 17.677 12.625 16.98 12.408 16.217 C 11.918 14.258 12.87 12.225 14.688 11.347 L 33.818 0.927 L 102.278 0.927 L 115.498 6.757 C 116.548 7.207 117.434 7.968 118.038 8.937 C 118.494 9.693 118.745 10.555 118.768 11.437 L 118.858 11.437 C 118.858 11.537 118.858 11.637 118.858 11.727 C 118.858 11.817 118.858 11.927 118.858 12.027 L 118.758 12.027 C 118.715 12.901 118.461 13.752 118.018 14.507 C 117.914 14.67 117.8 14.827 117.678 14.977 C 117.442 15.318 117.17 15.633 116.868 15.917 L 119.868 15.917 C 119.863 16.088 119.843 16.259 119.808 16.427 L 119.808 16.487 C 119.481 17.667 118.676 18.656 117.588 19.217 L 120.398 19.217 L 122.318 21.337 Z M 72.698 53.217 L 72.818 52.217 L 72.668 53.217 L 72.698 53.217 Z" transform="matrix(-1, 0, 0, -1, 122.136003, 55.144002)"/>
</svg>