<?xml version="1.0" encoding="utf-8"?>
<svg viewBox="0 0 164.83 62.85" xmlns="http://www.w3.org/2000/svg">
  <path d="M 164.83 32.88 L 117.54 48.38 L 109.26 48.38 L 109.26 49.19 L 113.63 49.19 C 113.787 49.19 113.923 49.298 113.96 49.45 C 113.999 49.603 113.923 49.763 113.78 49.83 L 109.68 51.88 L 144.41 52.63 L 144.52 52.89 L 144.52 54.16 L 144.39 54.33 L 105.66 53.88 L 104.09 54.66 L 104.37 54.91 L 104.37 54.85 C 104.421 54.795 104.509 54.795 104.56 54.85 L 104.99 55.24 C 105.044 55.288 105.044 55.372 104.99 55.42 L 103.56 57.02 C 103.506 57.07 103.424 57.07 103.37 57.02 L 103.2 56.86 L 102.93 56.63 C 102.885 56.575 102.885 56.495 102.93 56.44 L 102.93 56.39 L 102.07 55.6 L 98.46 57.4 L 94.22 57.4 L 94.93 57.4 L 94.93 60.79 C 94.93 60.957 94.797 61.095 94.63 61.1 L 88.29 61.1 C 88.182 61.102 88.082 61.044 88.03 60.95 L 85.85 57.43 L 86.34 57.43 L 78.61 57.43 L 78.61 62.88 L 73.49 62.88 C 72.591 62.869 71.809 62.26 71.58 61.39 C 71.54 61.23 71.52 61.065 71.52 60.9 L 71.52 55.41 L 69.41 51.09 C 69.32 50.75 70.04 49.81 70.63 49.39 C 70.75 49.264 70.916 49.192 71.09 49.19 L 73.09 49.19 L 73.09 48.38 L 34.93 48.38 L 3.1 41.77 L 0 32.99 L 0 32.88 L 0 27.78 L 10.25 14.78 L 14.86 14.78 L 15.48 16.25 L 16.42 14.78 C 16.42 14.53 16.36 14.28 16.33 14.03 L 16.39 14.03 C 16.39 13.65 16.33 13.26 16.33 12.87 C 16.33 12.48 16.33 12.38 16.33 12.14 L 16.26 12.14 C 16.26 11.88 16.26 11.63 16.33 11.38 L 16.39 11.38 C 16.466 10.752 16.59 10.13 16.76 9.52 L 16.69 9.52 C 16.76 9.28 16.83 9.04 16.91 8.8 L 17 8.8 C 17.209 8.203 17.459 7.622 17.75 7.06 L 17.69 7.06 C 17.8 6.83 17.93 6.61 18.06 6.39 L 18.13 6.39 C 18.448 5.842 18.809 5.321 19.21 4.83 L 19.71 4.26 L 19.77 4.26 C 20.182 3.768 20.63 3.306 21.11 2.88 L 21.11 2.82 L 21.32 2.66 L 21.61 2.44 L 21.72 2.36 L 21.77 2.42 C 22.284 2.047 22.826 1.712 23.39 1.42 L 23.39 1.35 L 24.08 1.03 L 24.08 1.09 C 24.66 0.841 25.258 0.637 25.87 0.48 L 25.87 0.41 C 26.11 0.34 26.36 0.29 26.61 0.24 L 26.61 0.3 C 27.23 0.176 27.858 0.102 28.49 0.08 L 28.49 0 L 29.25 0 L 29.25 0.07 C 29.884 0.075 30.516 0.132 31.14 0.24 L 31.14 0.17 L 31.89 0.31 L 31.89 0.38 C 32.507 0.52 33.112 0.707 33.7 0.94 L 33.7 0.88 L 34.4 1.17 L 34.4 1.24 C 34.975 1.505 35.53 1.813 36.06 2.16 L 36.06 2.11 L 36.53 2.43 L 36.68 2.54 L 36.68 2.61 C 37.194 2.997 37.679 3.422 38.13 3.88 L 38.22 3.97 C 38.37 4.12 38.51 4.28 38.65 4.44 L 38.6 4.5 C 39.016 4.975 39.397 5.48 39.74 6.01 L 39.81 6.01 L 40.2 6.66 L 40.14 6.71 C 40.451 7.262 40.718 7.837 40.94 8.43 L 41.01 8.43 C 41.1 8.66 41.18 8.9 41.26 9.14 L 41.2 9.14 C 41.399 9.707 41.552 10.289 41.66 10.88 L 41.74 10.88 C 41.74 10.99 41.74 11.1 41.74 11.21 L 45 11.21 C 45.07 10.618 45.187 10.033 45.35 9.46 L 45.28 9.46 C 45.35 9.22 45.42 8.98 45.5 8.74 L 45.57 8.74 C 45.779 8.143 46.029 7.562 46.32 7 L 46.25 7 C 46.37 6.77 46.49 6.55 46.62 6.33 L 46.69 6.33 C 47.015 5.784 47.38 5.263 47.78 4.77 L 47.73 4.77 C 47.89 4.58 48.05 4.39 48.23 4.2 L 48.29 4.2 C 48.717 3.727 49.178 3.286 49.67 2.88 L 49.67 2.82 L 49.88 2.66 L 50.17 2.44 L 50.28 2.36 L 50.28 2.42 C 50.793 2.044 51.334 1.71 51.9 1.42 L 51.9 1.35 L 52.59 1.03 L 52.59 1.09 C 53.173 0.841 53.775 0.637 54.39 0.48 L 54.39 0.41 C 54.63 0.34 54.88 0.29 55.13 0.24 L 55.13 0.3 C 55.75 0.176 56.378 0.102 57.01 0.08 L 57.01 0 L 57.77 0 L 57.77 0.07 C 58.404 0.076 59.036 0.132 59.66 0.24 L 59.66 0.17 L 60.41 0.31 L 60.41 0.38 C 61.027 0.52 61.632 0.707 62.22 0.94 L 62.22 0.88 L 62.92 1.17 L 62.92 1.24 C 63.494 1.507 64.049 1.815 64.58 2.16 L 64.58 2.11 L 65.05 2.43 L 65.2 2.54 L 65.2 2.61 C 65.728 2.995 66.226 3.42 66.69 3.88 L 66.78 3.97 C 66.93 4.12 67.07 4.28 67.21 4.44 L 67.16 4.5 C 67.576 4.975 67.957 5.48 68.3 6.01 L 68.37 6.01 L 68.76 6.66 L 68.7 6.71 C 69.011 7.262 69.278 7.837 69.5 8.43 L 69.57 8.43 C 69.66 8.66 69.74 8.9 69.82 9.14 L 69.76 9.14 C 69.959 9.707 70.112 10.289 70.22 10.88 L 70.3 10.88 C 70.3 10.95 70.3 11.02 70.3 11.09 L 81.03 11.09 C 81.108 10.551 81.218 10.016 81.36 9.49 L 81.29 9.49 C 81.36 9.25 81.43 9.01 81.51 8.77 L 81.58 8.77 C 81.789 8.173 82.039 7.592 82.33 7.03 L 82.26 7.03 C 82.38 6.8 82.5 6.58 82.63 6.36 L 82.7 6.36 C 83.022 5.815 83.383 5.293 83.78 4.8 C 83.94 4.61 84.1 4.42 84.28 4.23 L 84.34 4.23 C 84.76 3.747 85.214 3.296 85.7 2.88 L 85.7 2.82 L 85.91 2.66 C 86.002 2.581 86.099 2.508 86.2 2.44 L 86.31 2.36 L 86.31 2.42 C 86.823 2.044 87.364 1.71 87.93 1.42 L 87.93 1.35 L 88.62 1.03 L 88.62 1.09 C 89.203 0.841 89.805 0.637 90.42 0.48 L 90.42 0.41 C 90.66 0.34 90.91 0.29 91.16 0.24 L 91.16 0.3 C 91.78 0.176 92.408 0.102 93.04 0.08 L 93.04 0 L 93.8 0 L 93.8 0.07 C 94.434 0.076 95.066 0.133 95.69 0.24 L 95.69 0.17 L 96.44 0.31 L 96.44 0.38 C 97.057 0.521 97.662 0.708 98.25 0.94 L 98.25 0.88 L 98.95 1.17 L 98.95 1.24 C 99.524 1.507 100.079 1.815 100.61 2.16 L 100.61 2.11 L 101.08 2.43 L 101.23 2.54 L 101.23 2.61 C 101.758 2.995 102.256 3.42 102.72 3.88 L 102.81 3.97 L 103.24 4.44 L 103.19 4.5 C 103.606 4.975 103.987 5.48 104.33 6.01 L 104.4 6.01 L 104.79 6.66 L 104.73 6.71 C 105.041 7.262 105.308 7.837 105.53 8.43 L 105.6 8.43 C 105.69 8.66 105.77 8.9 105.85 9.14 L 105.79 9.14 C 105.977 9.744 106.114 10.363 106.2 10.99 L 106.28 10.99 L 106.28 11.05 L 109.58 11.05 C 109.653 10.554 109.756 10.063 109.89 9.58 L 109.82 9.58 C 109.89 9.34 109.96 9.1 110.04 8.86 L 110.11 8.86 C 110.315 8.263 110.563 7.682 110.85 7.12 L 110.79 7.12 C 110.91 6.89 111.03 6.67 111.16 6.45 L 111.23 6.45 C 111.552 5.905 111.913 5.383 112.31 4.89 C 112.47 4.7 112.63 4.51 112.81 4.32 L 112.87 4.32 C 113.298 3.854 113.759 3.419 114.25 3.02 L 114.25 2.96 L 114.46 2.8 C 114.552 2.721 114.649 2.648 114.75 2.58 L 114.86 2.5 L 114.86 2.56 C 115.373 2.184 115.914 1.85 116.48 1.56 L 116.48 1.49 L 117.17 1.17 L 117.17 1.23 C 117.753 0.981 118.355 0.777 118.97 0.62 L 118.97 0.55 C 119.21 0.48 119.46 0.43 119.71 0.38 L 119.71 0.44 C 120.33 0.316 120.958 0.242 121.59 0.22 L 121.59 0.14 L 122.35 0.14 L 122.35 0.21 C 122.984 0.216 123.616 0.273 124.24 0.38 L 124.24 0.31 L 124.99 0.45 L 124.99 0.52 C 125.607 0.661 126.212 0.848 126.8 1.08 L 126.8 1.02 L 127.5 1.31 L 127.5 1.38 C 128.074 1.647 128.629 1.955 129.16 2.3 L 129.16 2.25 L 129.63 2.57 L 129.78 2.68 L 129.78 2.75 C 130.306 3.09 130.808 3.468 131.28 3.88 L 131.33 3.88 L 131.42 3.97 L 131.85 4.44 L 131.85 4.5 C 132.263 4.977 132.644 5.482 132.99 6.01 L 133.05 6.01 L 133.45 6.66 L 133.39 6.71 C 133.701 7.262 133.968 7.837 134.19 8.43 L 134.26 8.43 C 134.35 8.66 134.43 8.9 134.51 9.14 L 134.45 9.14 C 134.637 9.744 134.774 10.363 134.86 10.99 L 134.94 10.99 L 135.03 11.74 L 134.97 11.74 C 134.97 12.13 135.02 12.52 135.02 12.91 C 135.02 13.11 135.02 13.32 135.02 13.52 L 137.5 15.05 L 137.58 14.84 L 142.19 14.84 L 164.85 27.84 L 164.91 27.84 L 164.83 32.88 Z M 103.34 56.05 L 103.78 55.56 L 103.34 56.05 Z" transform="matrix(-1, 0, 0, -1, 164.910006, 62.880002)"/>
</svg>