<svg xmlns="http://www.w3.org/2000/svg" viewBox="0 0 90.84 58.23">
  <path d="M90.73,56.19,75.4,49.67h.45V47.6l.1,0s2.31-2.72,4.28-5.25a4.66,4.66,0,0,0,.83-.15V43a1,1,0,0,0,1,1H86.4a1,1,0,0,0,1-1v-6.6a1,1,0,0,0-1-1H83.91a4.73,4.73,0,0,0-2.23-2.05c-.92-1.95-2.2-3.8-3.39-4.31l-3.84-1.64L76,24,73.76,23l-1.5,3.53L69.5,25.39l-1.18-.49,3-2.25-.6-.25-1.56,1-30-12.54L38.92,9.1l-.51-.21.1,3.55-.36-.16-1,2.49L33.5,13.26a.39.39,0,0,0-.51.21l-1.6,3.83a.39.39,0,0,0,.21.51l3.61,1.5-1,2.34L53.9,29.87l-.09,0v.32c-.25.11-.5.23-.74.36l-.25-.21-1,.58.06.32-.68.47-.28-.16-.89.75.11.31c-.2.18-.39.38-.58.58l-.31-.12-.75.9.16.28c-.16.22-.32.44-.47.67l-.32-.05-.58,1,.21.24c-.13.25-.24.5-.35.75h-.32l-.4,1.1.24.2c-.08.26-.14.53-.21.8l-.32.06-.2,1.14.28.17c0,.27-.06.54-.07.82l-.3.11v1.16l.3.11c0,.28,0,.55.07.82l-.28.17.2,1.14.32.06c.07.27.13.53.21.8l-.24.2.4,1.1h.32c.11.25.22.5.35.75l-.21.24.58,1,.32,0c.15.23.31.45.47.67l-.16.28.51.61-32.73,1.4-2.13,1.82H13c-4.5.11-8.13.76-8.11,1.44s3.68,1.14,8.17,1c4.05-.1,7.39-.63,8-1.23H68.68L86,58.23l4.83-.89Zm-8.5-12.93A.76.76,0,0,1,81.64,42a3.56,3.56,0,0,0,.51-.27l.08,0a.78.78,0,0,1,0,1.55Zm3.75,0a.78.78,0,1,1,.77-.77A.78.78,0,0,1,86,43.26Zm.35-7a.7.7,0,1,1,0,1.4.7.7,0,1,1,0-1.4Zm-.81,1.83a.61.61,0,1,1,0,1.22.61.61,0,0,1,0-1.22Zm0,2.1a.61.61,0,1,1,0,1.22.61.61,0,0,1,0-1.22ZM39.27,11.44,68.63,23.71l-1.28.78-8.63-3.61h0l-.49-.2h0l-2.37-1-.08,0h0l-16.3-6.82Z"/>
  <path d="M5.5,7l2-4.76L2.23,0a.39.39,0,0,0-.51.21L0,4.29a.38.38,0,0,0,.21.5l1.62.68ZM1.25,2.63l.15-.36a.93.93,0,0,1,1.21-.5L5.63,3a.91.91,0,0,1,.49,1.2L6,4.6a.92.92,0,0,1-1.21.5l-3-1.26A.93.93,0,0,1,1.25,2.63Z"/>
  <polygon points="7.49 2.23 5.5 6.99 8.35 7.36 8.44 7.14 31.59 16.82 32.81 13.9 9.66 4.22 9.05 5.68 9.75 4 7.49 2.23"/>
</svg>