<svg xmlns="http://www.w3.org/2000/svg" viewBox="0 0 99.67 47.65">
  <path d="M93.12,22.39c4.52,0,6.19-2.91,6.19-6.17v-6c0-3.77-1.22-8-8.16-8H86.67V0H74.87V2.21H44.47c-6.54,0-9.73,1.89-9.73,6.76,0,0,0,6.06,0,7.36,0,4.25,2.11,5.88,6.7,6.06h2q-1.07,0-2,0H34.38v7.23h1.51v.63H27.7s0-.09,0-.13a3,3,0,0,0,1-.61,2.28,2.28,0,0,0,.73-1.7v-.5h1.11V23.62h.16v-.74h-.16v-8h.2v-.74h-.2v-3h-.91v-.89a1.39,1.39,0,0,1,.44-1,2.65,2.65,0,0,1,2-.57l.06-1.1a3.76,3.76,0,0,0-2.76.88,2.49,2.49,0,0,0-.79,1.82v.89h-.91v3h0v.74h0v8h-.05v.74h.05v3.69h1v.49a1.5,1.5,0,0,1-.5,1.15,2.24,2.24,0,0,1-.8.46l-.11-.22H24.71L24,28.57h2.44A.56.56,0,0,0,27,28V10.33a.57.57,0,0,0-.57-.57H6.62a.55.55,0,0,0-.51.32L5.66,11a.58.58,0,0,0-.14,0h0a.44.44,0,0,0-.44.44v.86L1.1,20.36l.07,7H.6a.54.54,0,0,0-.22,0l-.06,0-.13.1a.56.56,0,0,0,0,.08.75.75,0,0,0-.07.12.49.49,0,0,0,0,.11s0,.06,0,.09H0A.44.44,0,0,0,0,28v3.13a.76.76,0,0,0,.18.5.58.58,0,0,0,.42.2h.62v.78l1.3,0,.14,1.64H1.76L1,34.59a.57.57,0,0,0-.32.69l.08.25v.06L2.12,40a.57.57,0,0,0,.55.4H10a.57.57,0,0,0,.41-.17.53.53,0,0,0,.16-.41,17,17,0,0,1,.39-3.91l.12-.15H13.3l0,0,0,0a6.58,6.58,0,0,0-.61.88l0,0a2.82,2.82,0,0,0-.21.38l0,0a7.81,7.81,0,0,0-.42,1h0c0,.14-.09.28-.12.41l0,0a6.1,6.1,0,0,0-.21,1h0c0,.14,0,.28,0,.43h0c0,.14,0,.28,0,.42s0,.44,0,.65h0c0,.14,0,.29,0,.43h0a7.28,7.28,0,0,0,.24,1h0c0,.14.09.28.14.41h0a6.08,6.08,0,0,0,.45,1l0,0c.07.13.15.25.23.37l0,0a6.82,6.82,0,0,0,.65.85l0,0,.24.26.05,0,0,0a6.66,6.66,0,0,0,.81.7l0,0,.09.07.26.18,0,0a8.54,8.54,0,0,0,.94.51V47l.39.16,0,0a7.07,7.07,0,0,0,1,.31v0l.42.08v0a6.26,6.26,0,0,0,1.07.1v0h.43v0a7.63,7.63,0,0,0,1.07-.13v0l.41-.1v0a6.66,6.66,0,0,0,1-.34l0,0,.39-.18,0,0a7.71,7.71,0,0,0,.92-.55l0,0,.06,0,.16-.13.12-.09,0,0a6.82,6.82,0,0,0,.78-.74l0,0c.1-.1.2-.21.29-.32l0,0a6,6,0,0,0,.61-.88l0,0,.21-.37,0,0a5.67,5.67,0,0,0,.42-1h0c.05-.14.09-.27.13-.41l0,0A8.87,8.87,0,0,0,26,41.26h0c0-.14,0-.28,0-.43h0c0-.14,0-.28,0-.41s0-.45,0-.66h0c0-.14,0-.28-.05-.43h0a7.26,7.26,0,0,0-.23-1h0l-.06-.16,4.22-1.41v3.61H49.76V35.78h.63c0,.08,0,.14,0,.22a2.82,2.82,0,0,0,.08.65v0c0,.1.07.2.11.3a.74.74,0,0,0,0,.14,3.75,3.75,0,0,0,.24.44,1.47,1.47,0,0,0,.1.13,2.75,2.75,0,0,0,.22.26l.15.14a1.59,1.59,0,0,0,.24.2l.17.11a1.51,1.51,0,0,0,.28.15l.17.08a1.93,1.93,0,0,0,.34.11l.17,0a3.07,3.07,0,0,0,.53.06,2.71,2.71,0,0,0,1.1-.23,2.77,2.77,0,0,0,1.19-1v.06h2.32l0,.15H59l0-.15h2v0h0c-.05.13-.1.27-.14.4l0,0a7.53,7.53,0,0,0-.26,1h0a3.41,3.41,0,0,0-.06.43h0a6.35,6.35,0,0,0,0,1.07h0a3,3,0,0,0,0,.43h0a7.59,7.59,0,0,0,.19,1.06h0c0,.14.07.27.11.41h0a7.72,7.72,0,0,0,.4,1l0,0c.06.13.13.25.2.38l0,0a6.54,6.54,0,0,0,.59.89l0,0,.27.32,0,0c.09.1.17.21.27.31s.32.3.49.44l0,0,.13.1.21.16,0,0a7.24,7.24,0,0,0,.9.58v0l.38.19,0,0a6.46,6.46,0,0,0,1,.37v0l.42.1v0a6.44,6.44,0,0,0,1.06.15v0l.43,0v0a7.82,7.82,0,0,0,1.07-.08v0l.42-.07v0a6.08,6.08,0,0,0,1-.3l0,0,.4-.16v0a7.07,7.07,0,0,0,.94-.5l0,0,.28-.19.07-.05,0,0a6.57,6.57,0,0,0,.82-.68l0,0,.07-.06h0a2.73,2.73,0,0,0,.23-.25l0,0a6,6,0,0,0,.67-.84l0,0c.08-.12.16-.24.23-.36l0,0a6.14,6.14,0,0,0,.48-1h0a3.25,3.25,0,0,0,.15-.4l0,0a6.09,6.09,0,0,0,.26-1h0a3.18,3.18,0,0,0,.06-.43h0a9.49,9.49,0,0,0,0-1.07h0l0-.43h0a7.21,7.21,0,0,0-.2-1.05l0,0a3.17,3.17,0,0,0-.12-.41h0c-.06-.17-.11-.34-.18-.51h2.88v0h0c-.05.13-.1.27-.14.4l0,0a7.53,7.53,0,0,0-.26,1h0a3.41,3.41,0,0,0-.06.43h0a6.35,6.35,0,0,0,0,1.07h0a3,3,0,0,0,0,.43h0A7.59,7.59,0,0,0,77,42.19h0l.12.41h0a7.72,7.72,0,0,0,.4,1l0,0c.06.13.13.25.2.38l0,0a6.54,6.54,0,0,0,.59.89l0,0a4.15,4.15,0,0,0,.27.32l0,0c.09.1.17.21.27.31s.32.3.49.44l0,0,.13.1.21.16,0,0a7.24,7.24,0,0,0,.9.58v0L81,47l0,0a6.46,6.46,0,0,0,1,.37v0l.42.1v0a6.44,6.44,0,0,0,1.06.15v0l.43,0v0A7.56,7.56,0,0,0,85,47.53v0l.43-.07v0a6.08,6.08,0,0,0,1-.3l0,0,.4-.16v0a7.07,7.07,0,0,0,.94-.5l0,0,.27-.19.08-.05,0,0a6.57,6.57,0,0,0,.82-.68l0,0,.07-.06h0l.23-.25,0,0a6,6,0,0,0,.67-.84l0,0,.23-.36,0,0a6.14,6.14,0,0,0,.48-1h0c.06-.13.1-.27.15-.4l0,0a6.09,6.09,0,0,0,.26-1h0c0-.14,0-.29.06-.43h0a9.49,9.49,0,0,0,0-1.07h0l0-.43h0a7.21,7.21,0,0,0-.2-1.05l0,0a3.17,3.17,0,0,0-.12-.41h0a9.47,9.47,0,0,0-.4-1l0,0-.2-.38,0,0a6.31,6.31,0,0,0-.6-.89l0,0c0-.06-.09-.11-.13-.16h4.26v2.09h1.24l0-2.09h2.27v3.83h1V35.78h.2V30.25h-.42v-.63h1.59V22.39Zm-77.2-.56H4.24V19.39L7.83,12h8.09ZM25.2,37s-.05-.08-.07-.13l0,0c-.07-.13-.14-.25-.22-.37l0,0a8,8,0,0,0-.55-.75H29Zm21.05-6.78H42.7v-.63h3.55ZM58.06,36H56v-.17h2.06Zm-5-5.7v-.63h8.65V30l-.4.27ZM62.14,36H59.35l0-.17h2.91Zm16.23,0H73.46c0-.06-.09-.11-.13-.16h5.18Zm12.9-6H84.18v-.3h7.09Z"/>
</svg>