<svg width="70" height="16" viewBox="0 0 70 16" xmlns="http://www.w3.org/2000/svg">
    <path fill="#000" d="M28.338 3.236v-1.71h-6.684v11.33h1.909v-4.7h4.324v-1.71h-4.324v-3.21zM46.645 7.93v4.926h1.802v-5.38c0-1.25-.649-3.55-3.396-3.55-2.148 0-2.974 1.295-2.974 1.295l-.136-1.132h-1.598v8.767h1.826V8.39c0-1.952 1.036-2.873 2.431-2.873 1.658 0 2.045 1.316 2.045 2.412zM66.318 12.103l3.68-8.03H68.12l-2.678 6.143-2.853-6.142h-1.98l3.875 8.124c-.084.197-.6 1.374-.98 1.753-.333.322-.79.45-1.339.45l.266 1.519c.401.012.8-.056 1.174-.2.373-.145.712-.363.996-.64.845-.837 1.542-2.598 1.542-2.598l.15-.325h.05l-.025-.054zM34.293 3.943h-.485a4.53 4.53 0 0 0-3.166 1.283A4.329 4.329 0 0 0 29.33 8.32v.333c0 1.161.473 2.274 1.312 3.095a4.53 4.53 0 0 0 3.166 1.282h.485a4.53 4.53 0 0 0 3.166-1.282 4.329 4.329 0 0 0 1.312-3.095v-.333a4.329 4.329 0 0 0-1.312-3.095 4.53 4.53 0 0 0-3.166-1.283zm2.663 4.654c0 .74-.301 1.45-.836 1.973a2.886 2.886 0 0 1-2.018.817h-.093a2.886 2.886 0 0 1-2.017-.817 2.758 2.758 0 0 1-.836-1.973v-.22c0-.74.3-1.45.836-1.972a2.887 2.887 0 0 1 2.017-.817h.084c.757 0 1.483.294 2.018.817.535.523.835 1.232.835 1.972l.01.22zM57.553.963V4.9a4.524 4.524 0 0 0-2.79-.956h-.27a4.532 4.532 0 0 0-3.165 1.283 4.33 4.33 0 0 0-1.312 3.095v.333c0 1.161.472 2.274 1.312 3.095a4.53 4.53 0 0 0 3.166 1.282h.269a4.518 4.518 0 0 0 3.039-1.163l.148.97h1.44V.963h-1.837zm.09 7.634c0 .74-.3 1.45-.836 1.973a2.887 2.887 0 0 1-2.017.817h-.093a2.887 2.887 0 0 1-2.018-.817 2.758 2.758 0 0 1-.836-1.973v-.22c0-.74.301-1.45.836-1.972a2.887 2.887 0 0 1 2.018-.817h.093c.756 0 1.482.294 2.017.817.535.523.836 1.232.836 1.972v.22z"/>
    <path d="M9.898 12.525V10.66a.577.577 0 0 0-.3-.508L7.946 9.22a.611.611 0 0 0-.6 0l-1.652.932a.577.577 0 0 0-.3.508v1.865a.577.577 0 0 0 .3.509l1.652.932a.611.611 0 0 0 .6 0l1.652-.932a.594.594 0 0 0 .3-.51zM15.294 12.525V10.66a.577.577 0 0 0-.3-.508l-1.652-.932a.61.61 0 0 0-.6 0l-1.652.932a.577.577 0 0 0-.3.508v1.865a.577.577 0 0 0 .3.509l1.651.932a.611.611 0 0 0 .601 0l1.652-.932a.594.594 0 0 0 .3-.51zM7.21 7.954V6.089a.577.577 0 0 0-.301-.51l-1.652-.93a.611.611 0 0 0-.6 0l-1.652.93a.594.594 0 0 0-.3.508V7.95a.577.577 0 0 0 .3.51l1.651.935a.612.612 0 0 0 .601 0l1.652-.933a.594.594 0 0 0 .3-.51zM12.597 7.954V6.089a.577.577 0 0 0-.3-.508l-1.652-.932a.61.61 0 0 0-.6 0l-1.652.93a.578.578 0 0 0-.3.508V7.95a.578.578 0 0 0 .3.51l1.652.931a.611.611 0 0 0 .6 0l1.652-.932a.578.578 0 0 0 .3-.506zM4.505 12.525V10.66a.577.577 0 0 0-.3-.508L2.553 9.22a.61.61 0 0 0-.6 0L.3 10.152a.577.577 0 0 0-.3.508v1.865a.577.577 0 0 0 .3.509l1.652.932a.611.611 0 0 0 .6 0l1.653-.932a.594.594 0 0 0 .3-.51z" fill="#08A835"/>
    <path d="M9.898 3.383V1.52a.577.577 0 0 0-.3-.508L7.946.079a.611.611 0 0 0-.6 0l-1.652.932a.594.594 0 0 0-.3.508v1.864a.577.577 0 0 0 .3.51l1.652.932a.611.611 0 0 0 .6 0l1.652-.932a.577.577 0 0 0 .3-.51z" fill="#000"/>
</svg>
