<svg width="157.87" height="50.74" xmlns="http://www.w3.org/2000/svg">

 <g>
  <title>Layer 1</title>
  <path id="svg_1" d="m157.22,23.15l0.65,-1.19l-10.2,-6.51l-1.35,0.93l-0.74,-0.41l0,-0.05l0,0l0,-0.19l0,0l0,-0.19l0,0c0,-0.38 0.07,-0.66 0.08,-0.83l0,0a0.88,0.88 0 0 0 0,-0.14l0,0a1.93,1.93 0 0 0 0,-0.24l0,0l0,0l0,0l0,-0.13l0,0a0.43,0.43 0 0 0 -0.05,-0.16a1.09,1.09 0 0 0 -0.07,-0.24s0,-0.09 0,-0.13l0,0a1.83,1.83 0 0 0 -0.18,-0.3a1.5,1.5 0 0 0 -0.87,-0.45l0.39,-0.72l0,0l6.31,-11.54l-1.19,-0.66l-6.51,10.21l0.93,1.34l-0.71,1.3l-3.66,0l-0.11,0l-1.17,-0.65l0,0l-10.07,-5.52l-0.7,1.2l10.21,6.5l0.86,-0.6a1.12,1.12 0 0 0 0.09,0.38l0,0l0,0.08l0,0l0,0a0.58,0.58 0 0 0 0.11,0.15l0.07,0.06l0.12,0.1l0,0l0,0l0.08,0a0.88,0.88 0 0 0 0.33,0.06l0.44,0l-7.66,12.1l-9.78,3.29l-32.54,-2l-3,-0.44l0,-0.05l-1.3,-0.9l-5.89,0c-4.2,-0.51 -8.68,-0.93 -13,-1.08l1,-0.3l-0.19,-0.5l0,0l-0.25,-0.23l-2.28,-2.19l0,0l0,-0.37l6.32,-0.29l0,0.37l1.13,0l0,-0.33l52.55,-1.1l-1,-2.11l-1,0l0,0l-0.36,0l0,0l-1.69,0.07l-0.19,0l-1.51,0.07l0,0l-0.36,0l0,0l-1.51,0.07l-0.28,0l-1.9,0.08l-0.06,0l-1.52,0.06l0,0l-0.36,0l0,0l-1.51,0.07l0,0l-0.36,0l0,0l-1.52,0.06l-0.07,0l-1.8,0.08l-0.3,0l-1.89,0.09l0,0l-1.58,0.07l-0.3,0l-1.55,0.07l-0.32,0l0,0l-29.72,1.43l0,-0.37l-1.13,0.06l0,0.36l-6.32,0.25l0,-0.37l-1.12,0l0,0.42l-0.31,-0.3l0,-0.49l0.91,0l0,-0.88l-4.38,0.19l0,0.88l0.91,0l0.06,1l-0.05,0l-0.11,1l0,0l0,0.19l0,0.13l-0.56,0l0,0.28l0,0l0.06,1.36l0.3,0l0,0.12l0,0l0,0.21l0,0.16l0,0l0,0.2l0,0.17l0,0l0,0.2a43.53,43.53 0 0 0 -10,1.38l-9.02,2.53l-2.9,3.49c-7.55,3.85 -11,5.61 -11.08,7.3a3.78,3.78 0 0 0 0.38,1.83l0,0l0,0.05a5,5 0 0 0 0.29,0.5l0,0l0,0l0.31,0.45l0,0l0.15,0.16l0,0l-11.85,0a0.26,0.26 0 0 0 -0.25,0.26a0.25,0.25 0 0 0 0.25,0.25l21.44,0l0.24,0.41a0.77,0.77 0 0 0 0.67,0.37l3.71,0l0,0.65l-0.24,0l0,0.23l0.24,0l0,0.52l-0.19,0.23l-0.05,0l0,0.06l-1.12,1.41l0,0l-0.07,0.13l0,0l0,0l0,0.08l1.13,0.63a2.12,2.12 0 0 0 -0.06,0.44a1.9,1.9 0 1 0 1.9,-1.9a2.21,2.21 0 0 0 -0.37,0l0,-0.89l-0.24,0l0,-0.75l0.24,0l0,-0.23l-0.24,0l0,-0.66l7,0l7.58,0c4.94,0 9.85,0 15.39,-0.08l0.06,0l2.31,0l0.37,0l2.86,-0.05l1.14,-0.07l0.39,0l0.57,0l0.35,0l0.21,0l0.27,0l1,-0.1l-0.49,1.23l0,0l0,0l0.1,0l1.92,1.06a2.85,2.85 0 0 0 -0.46,1.55a2.89,2.89 0 1 0 2.85,-2.94a2.73,2.73 0 0 0 -0.5,0l-0.11,-0.35l0.27,-0.08l-0.37,-1.05l0.69,-0.1l0.33,-0.05l1.09,-0.17l0.49,-0.08l0.51,-0.08l0.72,-0.12l0.87,-0.15l0.47,-0.08l2.09,-0.37l0,0c7,-1.26 15.53,-3 24.09,-4.76l11.49,-2.35l4.46,-0.89c2.92,-0.59 5.75,-1.14 8.42,-1.64c0.68,-0.12 1.44,-0.68 1.24,-1.34l0.18,-1.8l0.06,-0.57l0,0c0.05,-0.46 0.1,-0.95 0.16,-1.48l2.34,0l0,0l0,0c-0.06,-0.27 -1,-0.53 -2.25,-0.73c0,-0.18 0,-0.35 0.05,-0.53l0,0l0,-0.2l0,0l0,-0.19l0,0c0.33,-3.17 0.72,-6.83 0.95,-9.11l0.18,0.1l0,0l11.59,6.32zm-115.02,24.53l0.92,-1.1l0,0.61l0.24,0l0,0.41a2,2 0 0 0 -0.34,0.53l-0.82,-0.45zm43.61,-2l-0.19,0.17l-1.62,-0.91l0.42,-1.06l0.15,0l0.39,0l0.46,1.42l0.27,-0.09l0.12,0.47z"/>
  <polygon id="svg_2" points="60.6 19.04 60.62 19.61 64.43 19.44 64.41 18.87 60.66 19.04 64.69 18.86 64.66 18.2 64.66 18.2 64.65 17.98 60.27 18.18 60.31 19.06 60.6 19.04"/>
  <rect id="svg_3" transform="rotate(-2.56 -0.73 2.81)" height="0.57" width="3.81" y="20.32" x="59.81"/>
  <polygon id="svg_4" points="52.44 22.5 52.45 22.84 53.58 22.79 53.56 22.42 59.89 22.13 59.91 22.5 61.03 22.45 60.96 20.86 59.83 20.92 59.85 21.29 53.52 21.57 53.51 21.2 52.38 21.25 52.4 21.62 0.81 23.94 0 26.14 52.44 22.5 52.44 22.5"/>
 </g>
</svg>