<?xml version="1.0" encoding="utf-8"?>
<svg id="master-artboard" viewBox="0 0 1176.4873046875 291.376708984375" version="1.1" xmlns="http://www.w3.org/2000/svg" x="0px" y="0px" style="enable-background:new 0 0 336 235.2;" width="1176.4873046875px" height="291.376708984375px"><rect id="ee-background" x="0" y="0" width="1176.4873046875" height="291.376708984375" style="fill: white; fill-opacity: 0; pointer-events: none;"/><g transform="matrix(1.09375, 0, 0, 1.09375, -150.27172660827637, -220.70191955566406)"><metadata>
Created by potrace 1.15, written by Peter Selinger 2001-2017
</metadata><g transform="translate(0.000000,640.000000) scale(0.100000,-0.100000)" fill="#000000" stroke="none">




<path d="M5142 4221 c-76 -13 -81 -45 -10 -60 l33 -7 3 -157 3 -157 -74 0&#10;c-60 0 -79 4 -101 21 -52 41 -376 47 -517 9 -57 -16 -71 -39 -67 -109 l3 -61&#10;-30 0 c-129 -2 -484 -21 -543 -30 -40 -5 -98 -18 -128 -29 -30 -10 -57 -14&#10;-60 -10 -13 22 -67 8 -99 -24 -83 -83 -39 -231 69 -232 23 0 53 -8 67 -17 24&#10;-17 24 -17 -21 -10 -25 4 -180 7 -345 7 -249 0 -315 -3 -390 -18 -155 -31&#10;-263 -71 -335 -126 -19 -14 -38 -26 -42 -26 -4 0 -41 -40 -83 -90 -153 -181&#10;-237 -335 -243 -445 -4 -60 -2 -68 27 -104 67 -84 177 -148 327 -190 144 -40&#10;432 -89 657 -112 l67 -6 0 -74 c0 -40 -5 -76 -11 -79 -5 -4 -14 -18 -19 -31&#10;-6 -14 -18 -24 -30 -24 -16 0 -20 -7 -20 -34 0 -39 22 -62 55 -58 18 3 24 -3&#10;29 -30 14 -77 85 -137 161 -138 71 0 154 84 155 155 0 54 -40 117 -90 143 -54&#10;27 -84 28 -133 3 l-37 -19 0 90 0 90 63 -6 c34 -3 233 -18 442 -31 209 -14&#10;517 -37 685 -50 168 -13 420 -31 560 -40 140 -8 278 -18 307 -21 l51 -5 -10&#10;-37 c-25 -91 29 -213 113 -258 162 -84 349 26 349 206 l0 63 73 -7 c39 -3 173&#10;-9 297 -13 209 -6 232 -4 329 16 303 65 541 191 742 391 143 143 228 279 229&#10;368 l0 32 88 0 c49 0 191 -3 315 -7 l227 -6 0 -67 c0 -42 5 -71 13 -77 6 -6&#10;117 -16 244 -23 186 -10 236 -10 248 0 11 9 15 33 15 86 l0 74 88 0 c48 0 614&#10;-7 1259 -16 644 -9 1191 -14 1216 -10 44 7 46 9 250 264 l206 258 21 84 c22&#10;86 38 125 25 60 -4 -19 -9 -46 -12 -60 -3 -14 -1 -20 4 -14 4 5 17 10 28 10&#10;34 0 119 33 145 57 54 47 86 112 93 187 2 20 7 42 12 50 5 8 5 15 -1 17 -6 2&#10;-9 17 -8 33 2 33 -38 115 -71 145 -56 51 -78 66 -96 68 -10 1 -19 4 -19 7 0 7&#10;-43 13 -95 14 -52 0 -149 -47 -180 -88 -53 -71 -64 -101 -61 -172 1 -38 7 -78&#10;14 -90 26 -49 19 -57 -292 -301 l-299 -236 -66 6 c-36 3 -131 13 -211 21 -153&#10;17 -821 74 -1450 126 -501 41 -1245 108 -1400 125 -183 21 -437 41 -965 76&#10;-258 17 -475 35 -481 40 -6 5 -16 27 -23 49 -6 22 -16 40 -20 40 -5 0 -30 31&#10;-57 70 -90 132 -155 156 -474 172 -215 11 -215 11 -248 40 -38 33 -30 32 -107&#10;13 -33 -8 -105 -18 -159 -21 l-99 -7 6 84 c4 46 7 116 7 155 l0 72 37 7 c107&#10;20 94 59 -22 69 -33 2 -79 1 -103 -3z m6528 -585 c0 -2 -8 -10 -17 -17 -16&#10;-13 -17 -12 -4 4 13 16 21 21 21 13z m-55 -46 c-10 -11 -23 -20 -29 -20 -6 0&#10;0 9 14 20 32 25 38 25 15 0z"/>
</g></g><g transform="matrix(6.697539329528809, 0.3036470413208008, -0.3036470413208008, 6.697539329528809, 4.044694900512695, 36.85108947753906)"><g>
  <title>Layer 1</title>
  
  
  
  <path d="M 52.439998626708984 22.5 L 52.45000076293945 22.84000015258789 L 53.58000183105469 22.790000915527344 L 53.560001373291016 22.420000076293945 L 59.88999938964844 22.1299991607666 L 59.90999984741211 22.5 L 61.029998779296875 22.450000762939453 L 60.959999084472656 20.860000610351562 L 59.83000183105469 20.920000076293945 L 59.849998474121094 21.290000915527344 L 53.52000045776367 21.56999969482422 L 53.5099983215332 21.200000762939453 L 52.380001068115234 21.25 L 52.400001525878906 21.6200008392334 L 0.8100000023841858 23.940000534057617 L 0 26.139999389648438 L 52.439998626708984 22.5 L 52.439998626708984 22.5 Z" id="svg_4" transform="matrix(1, 0, 0, 1, -0.3680625855922557, -27.236634005253528)"/>
 </g></g><path d="M 52.439998626708984 22.5 L 52.45000076293945 22.84000015258789 L 53.58000183105469 22.790000915527344 L 53.560001373291016 22.420000076293945 L 59.88999938964844 22.1299991607666 L 59.90999984741211 22.5 L 61.029998779296875 22.450000762939453 L 60.959999084472656 20.860000610351562 L 59.83000183105469 20.920000076293945 L 59.849998474121094 21.290000915527344 L 53.52000045776367 21.56999969482422 L 53.5099983215332 21.200000762939453 L 52.380001068115234 21.25 L 52.400001525878906 21.6200008392334 L 0.8100000023841858 23.940000534057617 L 0 26.139999389648438 L 52.439998626708984 22.5 L 52.439998626708984 22.5 Z" id="path-1" transform="matrix(-6.62826681137085, -0.2401266247034073, 0.2401266247034073, -6.62826681137085, 827.814790725708, 175.9090118408203)"/></svg>