<svg xmlns="http://www.w3.org/2000/svg" viewBox="0 0 157.87 50.74">
  <path d="M157.22,23.15l.65-1.19-10.2-6.51-1.35.93-.74-.41v-.05h0l0-.19h0v-.19h0c0-.38.07-.66.08-.83h0a.88.88,0,0,0,0-.14v0a1.93,1.93,0,0,0,0-.24h0v0h0V14.2h0a.43.43,0,0,0-.05-.16,1.09,1.09,0,0,0-.07-.24s0-.09,0-.13h0a1.83,1.83,0,0,0-.18-.3,1.5,1.5,0,0,0-.87-.45l.39-.72h0L151.19.66,150,0l-6.51,10.21.93,1.34-.71,1.3h-3.66l-.11,0-1.17-.65h0L128.7,6.68,128,7.88l10.21,6.5.86-.6a1.12,1.12,0,0,0,.09.38h0l0,.08h0l0,0a.58.58,0,0,0,.11.15l.07.06.12.1,0,0,0,0,.08,0a.88.88,0,0,0,.33.06h.44l-7.66,12.1-9.78,3.29L90.33,28l-3-.44v-.05l-1.3-.9H80.14c-4.2-.51-8.68-.93-13-1.08l1-.3-.19-.5h0l-.25-.23-2.28-2.19h0l0-.37,6.32-.29,0,.37,1.13,0,0-.33,52.55-1.1-1-2.11-1,0h0l-.36,0h0l-1.69.07h-.19l-1.51.07h0l-.36,0h0l-1.51.07h-.28l-1.9.08h-.06l-1.52.06h0l-.36,0h0l-1.51.07h0l-.36,0h0l-1.52.06h-.07l-1.8.08h-.3l-1.89.09h0l-1.58.07h-.3l-1.55.07-.32,0h0L72.76,20.7v-.37l-1.13.06,0,.36L65.31,21l0-.37-1.12,0,0,.42-.31-.3,0-.49.91,0,0-.88-4.38.19,0,.88.91,0,.06,1-.05,0-.11,1h0l0,.19v.13l-.56,0,0,.28h0l.06,1.36.3,0v.12h0l0,.21,0,.16h0l0,.2,0,.17h0l0,.2a43.53,43.53,0,0,0-10,1.38L42,29.38l-2.9,3.49c-7.55,3.85-11,5.61-11.08,7.3A3.78,3.78,0,0,0,28.4,42h0l0,.05a5,5,0,0,0,.29.5h0l0,0L29,43,29,43l.15.16,0,0H17.3a.26.26,0,0,0-.25.26.25.25,0,0,0,.25.25H38.74l.24.41a.77.77,0,0,0,.67.37l3.71,0v.65h-.24v.23h.24v.52l-.19.23h-.05v.06L42,47.55l0,0-.07.13,0,0h0l0,.08,1.13.63a2.12,2.12,0,0,0-.06.44,1.9,1.9,0,1,0,1.9-1.9,2.21,2.21,0,0,0-.37,0v-.89h-.24v-.75h.24v-.23h-.24v-.66l7,0h7.58c4.94,0,9.85,0,15.39-.08h.06l2.31,0H77l2.86-.05L81,44.2l.39,0,.57,0,.35,0,.21,0,.27,0,1-.1-.49,1.23h0v0l.1,0,1.92,1.06a2.85,2.85,0,0,0-.46,1.55A2.89,2.89,0,1,0,87.71,45a2.73,2.73,0,0,0-.5,0l-.11-.35.27-.08L87,43.52l.69-.1.33-.05,1.09-.17.49-.08.51-.08.72-.12.87-.15.47-.08,2.09-.37h0c7-1.26,15.53-3,24.09-4.76l11.49-2.35,4.46-.89c2.92-.59,5.75-1.14,8.42-1.64.68-.12,1.44-.68,1.24-1.34l.18-1.8.06-.57h0c.05-.46.1-.95.16-1.48h2.34v0h0c-.06-.27-1-.53-2.25-.73,0-.18,0-.35.05-.53h0l0-.2h0l0-.19h0c.33-3.17.72-6.83.95-9.11l.18.1h0ZM42.2,47.68l.92-1.1v.61h.24v.41a2,2,0,0,0-.34.53Zm43.61-2-.19.17L84,44.94l.42-1.06.15,0,.39,0,.46,1.42.27-.09Z"/>
  <polygon points="60.6 19.04 60.62 19.61 64.43 19.44 64.41 18.87 60.66 19.04 64.69 18.86 64.66 18.2 64.66 18.2 64.65 17.98 60.27 18.18 60.31 19.06 60.6 19.04"/>
  <rect x="60.54" y="17.51" width="3.81" height="0.57" transform="translate(-0.73 2.81) rotate(-2.56)"/>
  <polygon points="52.44 22.5 52.45 22.84 53.58 22.79 53.56 22.42 59.89 22.13 59.91 22.5 61.03 22.45 60.96 20.86 59.83 20.92 59.85 21.29 53.52 21.57 53.51 21.2 52.38 21.25 52.4 21.62 0.81 23.94 0 26.14 52.44 22.5 52.44 22.5"/>
</svg>