<svg xmlns="http://www.w3.org/2000/svg" viewBox="0 0 863.47 345.78">
  <path class="cls-3" d="M156,175.19s-52.65-56-25.82-74.28c15.48-10.56,25.56,3,25.56,3s10.08-13.51,25.55-3c26.84,18.3-25.29,74.28-25.29,74.28m-.44-61a37.38,37.38,0,0,0-5.39-5.66c-1.45-1.16-7.49-5.85-15.33-.5a8.1,8.1,0,0,0-3.81,6.36c0,.52-.08,1.06-.08,1.61,0,12.34,13.42,32.44,25,46.3,11.43-13.81,24.61-33.82,24.61-46.16a13,13,0,0,0-.09-1.67,8.17,8.17,0,0,0-3.85-6.44c-7.84-5.35-12.19-2-14.81,0a35.06,35.06,0,0,0-6.27,6.12" transform="translate(-67.86 -45.13)"/>
  <path d="M244.74,222.22H67.86V45.34H244.74Zm-169.8-7.07H237.67V52.41H74.94Z" transform="translate(-67.86 -45.13)"/>
  <path d="M931.34,221.9H236.87V45.13H931.34Zm-687.4-7.08H924.26V52.21H243.94Z" transform="translate(-67.86 -45.13)"/>
  <path d="M713,390.91H237.15V215H713Zm-468.74-7.07H705.9V222.09H244.23Z" transform="translate(-67.86 -45.13)"/>
  <polygon points="280.27 130.06 268.04 130.06 268.04 59.52 248.45 59.52 248.45 130.06 236.22 130.06 236.22 48.99 280.27 48.99 280.27 130.06"/>
  <path d="M368.72,109.63c0-12.45,11-16.86,20.5-16.86s20.38,4.41,20.38,16.86v50.05c0,12.34-11,16.76-20.38,16.76s-20.5-4.42-20.5-16.76Zm28.65,0c0-4.64-4.41-6.33-8.15-6.33s-8.27,1.58-8.27,6.33v50.05c0,4.64,4.53,6.34,8.27,6.34s8.15-1.7,8.15-6.34Z" transform="translate(-67.86 -45.13)"/>
  <path d="M428.16,175.19V94.12h22.42c10.3,0,17.89,6.34,17.89,16v10c0,4.87-2.5,9.17-6.91,12.8,6.34,3.17,9.28,7.58,9.28,14v10c0,9.85-6.45,18.34-18.57,18.34Zm28.08-63.85c0-3.4-1.7-6.8-6.69-6.8h-9.17v23.55h9.17c5,0,6.69-3.51,6.69-6.79Zm2.38,35.43c0-4.3-2.61-8.15-8.49-8.15h-9.75v26.16h9.75c6,0,8.49-3.74,8.49-8Z" transform="translate(-67.86 -45.13)"/>
  <polygon points="457.66 130.06 421.76 130.06 421.76 48.99 457.66 48.99 457.66 59.52 433.99 59.52 433.99 82.96 453.57 82.96 453.57 93.49 433.99 93.49 433.99 119.42 457.66 119.42 457.66 130.06"/>
  <path d="M544.53,175.19V94.12h21c12.9,0,21.17,7,21.17,20v10c0,12.91-8.27,19.93-21.17,19.93h-8.72v31.13Zm29.89-61c0-4.64-2.6-9.51-8.94-9.51h-8.72v29h8.72c6.34,0,8.94-5,8.94-9.51Z" transform="translate(-67.86 -45.13)"/>
  <polygon points="578.9 130.06 566.67 130.06 566.67 93.49 547.08 93.49 547.08 130.06 534.86 130.06 534.86 48.99 547.08 48.99 547.08 82.96 566.67 82.96 566.67 48.99 578.9 48.99 578.9 130.06"/>
  <polygon points="633.01 130.06 633.01 79 612.51 130.06 601.3 130.06 601.3 48.99 613.53 48.99 613.53 100.06 634.03 48.99 645.12 48.99 645.12 130.06 633.01 130.06"/>
  <path d="M762.34,146.89h12.22v12.79c0,12.34-11,16.76-20.37,16.76s-20.5-4.42-20.5-16.76V109.63c0-12.45,11-16.87,20.5-16.87s20.37,4.42,20.37,16.87v12.8H762.34v-12.8c0-4.64-4.42-6.34-8.15-6.34s-8.27,1.59-8.27,6.34v50.05c0,4.65,4.53,6.34,8.27,6.34s8.15-1.69,8.15-6.34Z" transform="translate(-67.86 -45.13)"/>
  <path d="M836.49,155.16c0,13.13-8.26,20-21.17,20h-21V94.12H806.6v31h8.72c12.91,0,21.17,6.91,21.17,20Zm-21.17,9.39c6.34,0,8.94-4.75,8.94-9.39v-10c0-3.74-2.6-9.51-8.94-9.51H806.6v28.87Z" transform="translate(-67.86 -45.13)"/>
  <polygon points="299.94 299.76 282.05 263.19 278.99 263.19 278.99 299.76 266.77 299.76 266.77 263.19 263.82 263.19 245.82 299.76 233.7 299.76 233.7 297.73 252.27 258.55 234.61 220.74 234.61 218.69 246.84 218.69 263.26 252.67 266.77 252.67 266.77 218.69 278.99 218.69 278.99 252.67 282.62 252.67 298.92 218.69 311.15 218.69 311.15 220.74 293.72 258.55 312.18 297.73 312.18 299.76 299.94 299.76"/>
  <polygon points="358.69 299.76 358.69 248.7 338.19 299.76 326.99 299.76 326.99 218.69 339.22 218.69 339.22 269.76 359.71 218.69 370.81 218.69 370.81 299.76 358.69 299.76"/>
  <path d="M458.93,344.9V263.83h22.42c10.29,0,17.88,6.34,17.88,16v10c0,4.87-2.49,9.17-6.9,12.8,6.33,3.17,9.28,7.58,9.28,14v10c0,9.85-6.45,18.34-18.57,18.34ZM487,281c0-3.4-1.7-6.79-6.69-6.79h-9.17V297.8h9.17c5,0,6.69-3.51,6.69-6.8Zm2.37,35.44c0-4.3-2.6-8.15-8.49-8.15h-9.74v26.16h9.74c6,0,8.49-3.74,8.49-8.05Z" transform="translate(-67.86 -45.13)"/>
  <polygon points="481.97 299.76 481.97 248.7 461.47 299.76 450.26 299.76 450.26 218.69 462.5 218.69 462.5 269.76 482.99 218.69 494.08 218.69 494.08 299.76 481.97 299.76"/>
  <polygon points="559.05 299.76 559.05 244.4 542.75 276.78 526.56 244.4 526.56 299.76 514.33 299.76 514.33 218.69 525.54 218.69 542.75 253.34 560.08 218.69 571.06 218.69 571.06 299.76 559.05 299.76"/>
</svg>