<svg id="Шар_1" data-name="Шар 1" xmlns="http://www.w3.org/2000/svg" viewBox="0 0 815.29 361.83"><defs><style>.cls-1,.cls-2{fill:#1d1d1b;}.cls-2{fill-rule:evenodd;}</style></defs><path class="cls-1" d="M174.36,182H0V0H174.36ZM6,175.71H168.39V6.23H6Z"/><path class="cls-2" d="M86.29,131.8S33.47,75.64,60.39,57.28c15.52-10.59,25.63,3,25.63,3s10.11-13.55,25.64-3c26.92,18.36-25.37,74.52-25.37,74.52m-.45-61.16A37.65,37.65,0,0,0,80.44,65c-1.46-1.16-7.52-5.86-15.38-.5a8.13,8.13,0,0,0-3.82,6.38c-.05.53-.08,1.07-.08,1.62,0,12.38,13.46,32.54,25.09,46.45C97.72,105,110.94,85,110.94,72.6a15.56,15.56,0,0,0-.08-1.69A8.27,8.27,0,0,0,107,64.45c-7.86-5.36-12.23-2-14.86,0a34.6,34.6,0,0,0-6.29,6.14"/><path class="cls-1" d="M815.29,181.91H168.4V0H815.29ZM174,175.68H809.67V6.24H174Z"/><path class="cls-1" d="M263.64,116.75V103.59h13.2v13.16q0,8.75-6.6,13a30.23,30.23,0,0,1-30.91,0q-6.6-4.25-6.6-13V65.28q0-8.85,6.6-13.11a30.23,30.23,0,0,1,30.91,0q6.6,4.26,6.6,13.11V78.44h-13.2V65.28a5.38,5.38,0,0,0-2.63-4.9,11.5,11.5,0,0,0-6.17-1.63,12.1,12.1,0,0,0-6.23,1.58,5.32,5.32,0,0,0-2.69,5v51.47a5.34,5.34,0,0,0,2.69,4.89,11.75,11.75,0,0,0,6.23,1.64,11.42,11.42,0,0,0,6.17-1.64A5.35,5.35,0,0,0,263.64,116.75Z"/><path class="cls-1" d="M294.71,116.75V65.28q0-8.85,6.32-13.11a26.09,26.09,0,0,1,14.88-4.25,25.82,25.82,0,0,1,14.75,4.25Q337,56.43,337,65.28v51.47q0,8.75-6.33,13A25.82,25.82,0,0,1,315.91,134,26.09,26.09,0,0,1,301,129.74Q294.72,125.49,294.71,116.75Zm29.63,0V65.28a5.45,5.45,0,0,0-2.52-4.9,10.69,10.69,0,0,0-5.91-1.63,11.24,11.24,0,0,0-6,1.58,5.38,5.38,0,0,0-2.57,5v51.47a5.4,5.4,0,0,0,2.57,4.89,10.93,10.93,0,0,0,6,1.64,10.62,10.62,0,0,0,5.91-1.64A5.42,5.42,0,0,0,324.34,116.75Z"/><path class="cls-1" d="M414.7,134H402.17V76.13l-17,33.84L368.23,76.13V134H355.45V49.26h11.71l18,36.21,18.09-36.21H414.7Z"/><path class="cls-1" d="M468,122.87V134h-35.4V49.26H468v11H444.7V84.76H464v11H444.7v27.1Z"/><path class="cls-1" d="M541.73,134H519.29V49.26h20.86A16,16,0,0,1,556.8,66V76.36q0,7.45-6.43,13.37Q559,94.59,559,104.41v10.41a20.68,20.68,0,0,1-4.58,13.67Q549.84,134,541.73,134Zm3.69-56.33V67.25a8.41,8.41,0,0,0-1.48-5,5.41,5.41,0,0,0-4.74-2.07h-8.53V84.76h8.53a5.45,5.45,0,0,0,4.69-2.07A8.21,8.21,0,0,0,545.42,77.66Zm2.21,37V104.29a9.29,9.29,0,0,0-2-6.1,7.23,7.23,0,0,0-5.9-2.42h-9.06V123.1h9.06c2.67,0,4.65-.78,5.95-2.36A9.19,9.19,0,0,0,547.63,114.7Z"/><path class="cls-1" d="M622.53,134H611.68l-3.58-18.34H590.3L586.82,134H576v-2.13l17.59-82.6h11.38l17.59,82.6Zm-16.64-29.46-6.75-34.79-6.63,34.79Z"/><path class="cls-1" d="M665.94,116.75V103.59h11.37v13.16q0,8.75-5.69,13a23,23,0,0,1-26.65,0q-5.69-4.25-5.69-13V65.28q0-8.85,5.69-13.11a23,23,0,0,1,26.65,0q5.7,4.26,5.69,13.11V78.44H665.94V65.28a5.65,5.65,0,0,0-2.27-4.9,8.9,8.9,0,0,0-5.32-1.63A9.3,9.3,0,0,0,653,60.33a5.54,5.54,0,0,0-2.32,5v51.47a5.56,5.56,0,0,0,2.32,4.89,9.06,9.06,0,0,0,5.37,1.64,8.84,8.84,0,0,0,5.32-1.64A5.62,5.62,0,0,0,665.94,116.75Z"/><path class="cls-1" d="M740.25,134H729.08L714.44,98.25l-4,7.58V134H699.06V49.26h11.38V82.87l17.69-33.61h11.28v2.13L720.55,86.66l19.7,45.2Z"/><path class="cls-1" d="M544.66,361.83h-376V175.68h376Zm-371.22-6.41H539.89V182.09H173.44Z"/><path class="cls-1" d="M334.85,315.69H299.21V229.63h12.14v74.76h23.5Z"/><path class="cls-1" d="M363.76,315.69h-11.3V229.63h11.3Z"/><path class="cls-1" d="M430.08,231.79l-19.4,83.9H399.52l-19.28-83.9v-2.16H391.4l13.65,64.19,13.87-64.19h11.16Z"/><path class="cls-1" d="M280.26,315.4H269.55L266,296.83H248.44L245,315.4H234.29v-2.15l17.37-83.62h11.23l17.37,83.62Zm-16.43-29.83-6.66-35.22-6.55,35.22Z"/><path class="cls-1" d="M481.72,304.39v11.3h-35V229.63h35v11.18h-23v24.88h19.07v11.18H458.68v27.52Z"/></svg>