<?xml version="1.0" encoding="utf-8"?>
<svg viewBox="0 0 146.19 61.203" xmlns="http://www.w3.org/2000/svg">
  <path style=" stroke:none;fill-rule:evenodd;fill:rgb(0%,0%,0%);fill-opacity:1;" d="M 15.68 12.328 C 15.5 12.063 14.988 11.531 14.727 11.328 C 14.473 11.121 13.406 10.293 12.02 11.238 C 11.602 11.523 11.402 11.859 11.348 12.363 C 11.336 12.453 11.332 12.551 11.332 12.648 C 11.332 14.828 13.703 18.379 15.754 20.828 C 17.773 18.387 20.102 14.852 20.102 12.672 C 20.102 12.57 20.098 12.473 20.086 12.379 C 20.031 11.867 19.828 11.527 19.406 11.238 C 18.02 10.293 17.25 10.879 16.789 11.246 C 16.168 11.738 15.887 12.063 15.68 12.328 M 15.758 23.098 C 15.758 23.098 6.457 13.211 11.199 9.977 C 13.93 8.109 15.711 10.5 15.711 10.5 C 15.711 10.5 17.492 8.109 20.227 9.977 C 24.969 13.211 15.758 23.098 15.758 23.098"/>
  <path style="fill:none;stroke-width:1.25;stroke-linecap:butt;stroke-linejoin:miter;stroke:rgb(0%,0%,0%);stroke-opacity:1;stroke-miterlimit:10;" d="M 0.805 0.781 L 30.805 0.781 L 30.805 30.781 L 0.805 30.781 L 0.805 0.781 Z M 0.805 0.781"/>
  <path style="fill:none;stroke-width:1.214;stroke-linecap:butt;stroke-linejoin:miter;stroke:rgb(0%,0%,0%);stroke-opacity:1;stroke-miterlimit:10;" d="M 30.664 0.746 L 145.195 0.746 L 145.195 30.727 L 30.664 30.727 L 30.664 0.746 Z M 30.664 0.746"/>
  <path style="fill:none;stroke-width:1.116;stroke-linecap:butt;stroke-linejoin:miter;stroke:rgb(0%,0%,0%);stroke-opacity:1;stroke-miterlimit:10;" d="M 30.715 30.762 L 96.695 30.762 L 96.695 60.586 L 30.715 60.586 L 30.715 30.762 Z M 30.715 30.762"/>
  <path style=" stroke:none;fill-rule:nonzero;fill:rgb(11.372375%,11.372375%,10.588074%);fill-opacity:1;" d="M 47.379 18.098 L 49.539 18.098 L 49.539 20.359 C 49.539 22.539 47.602 23.32 45.941 23.32 C 44.258 23.32 42.316 22.539 42.316 20.359 L 42.316 11.516 C 42.316 9.316 44.258 8.535 45.941 8.535 C 47.602 8.535 49.539 9.316 49.539 11.516 L 49.539 13.777 L 47.379 13.777 L 47.379 11.516 C 47.379 10.695 46.602 10.395 45.941 10.395 C 45.277 10.395 44.48 10.676 44.48 11.516 L 44.48 20.359 C 44.48 21.18 45.277 21.48 45.941 21.48 C 46.602 21.48 47.379 21.18 47.379 20.359 L 47.379 18.098 Z M 47.379 18.098"/>
  <path style=" stroke:none;fill-rule:nonzero;fill:rgb(11.372375%,11.372375%,10.588074%);fill-opacity:1;" d="M 57.855 11.516 C 57.855 10.695 57.074 10.395 56.414 10.395 C 55.754 10.395 54.953 10.676 54.953 11.516 L 54.953 20.359 C 54.953 21.18 55.754 21.48 56.414 21.48 C 57.074 21.48 57.855 21.18 57.855 20.359 L 57.855 11.516 Z M 52.793 11.516 C 52.793 9.316 54.734 8.535 56.414 8.535 C 58.074 8.535 60.016 9.316 60.016 11.516 L 60.016 20.359 C 60.016 22.539 58.074 23.32 56.414 23.32 C 54.734 23.32 52.793 22.539 52.793 20.359 L 52.793 11.516 Z M 52.793 11.516"/>
  <path style=" stroke:none;fill-rule:nonzero;fill:rgb(11.372375%,11.372375%,10.588074%);fill-opacity:1;" d="M 71.438 23.098 L 71.438 13.316 L 68.559 19.039 L 65.699 13.316 L 65.699 23.098 L 63.535 23.098 L 63.535 8.777 L 65.516 8.777 L 68.559 14.898 L 71.617 8.777 L 73.559 8.777 L 73.559 23.098 L 71.438 23.098 Z M 71.438 23.098"/>
  <path style=" stroke:none;fill-rule:nonzero;fill:rgb(11.372375%,11.372375%,10.588074%);fill-opacity:1;" d="M 83.613 23.098 L 77.273 23.098 L 77.273 8.777 L 83.613 8.777 L 83.613 10.637 L 79.434 10.637 L 79.434 14.777 L 82.895 14.777 L 82.895 16.637 L 79.434 16.637 L 79.434 21.219 L 83.613 21.219 L 83.613 23.098 Z M 83.613 23.098"/>
  <path style=" stroke:none;fill-rule:nonzero;fill:rgb(11.372375%,11.372375%,10.588074%);fill-opacity:1;" d="M 97.555 18.078 C 97.555 17.316 97.094 16.637 96.055 16.637 L 94.332 16.637 L 94.332 21.258 L 96.055 21.258 C 97.113 21.258 97.555 20.598 97.555 19.84 L 97.555 18.078 Z M 97.133 11.816 C 97.133 11.215 96.832 10.617 95.953 10.617 L 94.332 10.617 L 94.332 14.777 L 95.953 14.777 C 96.832 14.777 97.133 14.156 97.133 13.578 L 97.133 11.816 Z M 92.172 23.098 L 92.172 8.777 L 96.133 8.777 C 97.953 8.777 99.293 9.895 99.293 11.598 L 99.293 13.355 C 99.293 14.219 98.855 14.977 98.074 15.617 C 99.195 16.176 99.715 16.957 99.715 18.098 L 99.715 19.859 C 99.715 21.598 98.574 23.098 96.434 23.098 L 92.172 23.098 Z M 92.172 23.098"/>
  <path style=" stroke:none;fill-rule:nonzero;fill:rgb(11.372375%,11.372375%,10.588074%);fill-opacity:1;" d="M 106.66 12.238 L 105.402 18.117 L 107.941 18.117 L 106.66 12.238 Z M 109.043 23.098 L 108.359 20 L 104.98 20 L 104.32 23.098 L 102.262 23.098 L 102.262 22.738 L 105.602 8.777 L 107.762 8.777 L 111.102 22.738 L 111.102 23.098 L 109.043 23.098 Z M 109.043 23.098"/>
  <path style=" stroke:none;fill-rule:nonzero;fill:rgb(11.372375%,11.372375%,10.588074%);fill-opacity:1;" d="M 118.918 18.098 L 121.078 18.098 L 121.078 20.359 C 121.078 22.539 119.141 23.32 117.48 23.32 C 115.797 23.32 113.855 22.539 113.855 20.359 L 113.855 11.516 C 113.855 9.316 115.797 8.535 117.48 8.535 C 119.141 8.535 121.078 9.316 121.078 11.516 L 121.078 13.777 L 118.918 13.777 L 118.918 11.516 C 118.918 10.695 118.141 10.395 117.48 10.395 C 116.816 10.395 116.02 10.676 116.02 11.516 L 116.02 20.359 C 116.02 21.18 116.816 21.48 117.48 21.48 C 118.141 21.48 118.918 21.18 118.918 20.359 L 118.918 18.098 Z M 118.918 18.098"/>
  <path style=" stroke:none;fill-rule:nonzero;fill:rgb(11.372375%,11.372375%,10.588074%);fill-opacity:1;" d="M 130.191 23.098 L 127.414 17.059 L 126.652 18.34 L 126.652 23.098 L 124.492 23.098 L 124.492 8.777 L 126.652 8.777 L 126.652 14.457 L 130.012 8.777 L 132.152 8.777 L 132.152 9.137 L 128.574 15.098 L 132.313 22.738 L 132.313 23.098 L 130.191 23.098 Z M 130.191 23.098"/>
  <path style=" stroke:none;fill-rule:nonzero;fill:rgb(11.372375%,11.372375%,10.588074%);fill-opacity:1;" d="M 46.051 42.219 L 44.789 48.102 L 47.328 48.102 L 46.051 42.219 Z M 48.43 53.082 L 47.75 49.98 L 44.367 49.98 L 43.707 53.082 L 41.648 53.082 L 41.648 52.723 L 44.988 38.758 L 47.148 38.758 L 50.488 52.723 L 50.488 53.082 L 48.43 53.082 Z M 48.43 53.082"/>
  <path style=" stroke:none;fill-rule:nonzero;fill:rgb(11.372375%,11.372375%,10.588074%);fill-opacity:1;" d="M 53.598 53.082 L 53.598 38.758 L 55.758 38.758 L 55.758 51.199 L 59.938 51.199 L 59.938 53.082 L 53.598 53.082 Z M 53.598 53.082"/>
  <path style=" stroke:none;fill-rule:nonzero;fill:rgb(11.372375%,11.372375%,10.588074%);fill-opacity:1;" d="M 63.023 38.758 L 65.184 38.758 L 65.184 53.082 L 63.023 53.082 L 63.023 38.758 Z M 63.023 38.758"/>
  <path style=" stroke:none;fill-rule:nonzero;fill:rgb(11.372375%,11.372375%,10.588074%);fill-opacity:1;" d="M 73.664 53.082 L 71.684 53.082 L 68.262 39.117 L 68.262 38.758 L 70.242 38.758 L 72.664 49.441 L 75.125 38.758 L 77.102 38.758 L 77.102 39.117 L 73.664 53.082 Z M 73.664 53.082"/>
  <path style=" stroke:none;fill-rule:nonzero;fill:rgb(11.372375%,11.372375%,10.588074%);fill-opacity:1;" d="M 86.551 53.082 L 80.211 53.082 L 80.211 38.758 L 86.551 38.758 L 86.551 40.617 L 82.371 40.617 L 82.371 44.758 L 85.832 44.758 L 85.832 46.621 L 82.371 46.621 L 82.371 51.199 L 86.551 51.199 L 86.551 53.082 Z M 86.551 53.082"/>
</svg>