<svg xmlns="http://www.w3.org/2000/svg" viewBox="0 0 144.25 93.47">
  <path d="M141.86,66H135.6V61.71H124.7V59.43H127V57.14H96.5v2.29h2.28v2.28h-6L88.62,47.34l-2.87.83,3.91,13.54H87.89V66H59.69V50.48l-3.83-5.9H37.65v-4H10.84l1,2.51L0,58.15v4.9L10.92,74.73H23.09l1.66,1.16,0,.06.2.23q-.18.34-.33.69h-.3l-.37,1,.23.19c-.07.24-.14.49-.19.73l-.3.06-.19,1.06.27.15c0,.25-.06.5-.07.76l-.28.1V82l.28.1c0,.26,0,.51.07.76l-.27.15.19,1.06.3.06c.05.25.12.49.19.73l-.23.2.37,1h.3q.15.34.33.69l-.2.23.54.93.3,0,.43.63-.15.26.7.82.28-.1.54.54-.1.28.82.7.26-.15c.21.15.41.29.63.43l-.06.3.94.54.23-.2q.34.18.69.33v.3l1,.37.2-.23.73.19,0,.3,1.07.19.15-.27c.25,0,.5.06.76.07l.1.28h1.08l.1-.28c.26,0,.51,0,.76-.07l.15.27L38,93.2l.06-.3.73-.19.19.23,1-.37v-.3q.34-.15.69-.33l.23.2.93-.54-.05-.3.63-.43.26.15.82-.7L43.4,90l.54-.54.28.1.69-.82-.15-.26c.16-.21.3-.42.44-.63l.3,0L46,87l-.2-.23q.18-.34.33-.69h.3l.36-1-.22-.2c.07-.24.13-.48.19-.73l.3-.06L47.28,83,47,82.88c0-.25.06-.5.07-.76l.28-.1V80.94l-.28-.1c0-.26,0-.51-.07-.76l.26-.15-.06-.39h1.42l-.06.39.26.15c0,.25-.06.5-.07.76l-.28.1V82l.28.1c0,.26,0,.51.07.76l-.26.15.18,1.06.3.06c.06.25.12.49.19.73l-.22.2.36,1h.3q.15.34.33.69l-.2.23.54.93.3,0c.14.21.28.42.44.63l-.15.26.69.82.28-.1.54.54-.1.28.82.7.26-.15.63.43,0,.3.93.54.23-.2q.34.18.69.33v.3l1,.37.19-.23.74.19,0,.3,1.06.19.15-.27c.25,0,.5.06.76.07l.1.28H61l.1-.28c.26,0,.51,0,.76-.07l.15.27,1.07-.19,0-.3.73-.19.2.23,1-.37v-.3q.34-.15.69-.33l.23.2L67,91.6l-.06-.3c.22-.14.43-.28.63-.43l.26.15.82-.7L68.5,90,69,89.5l.28.1.7-.82-.15-.26.43-.63.3,0,.54-.93-.2-.23q.18-.34.33-.69h.3l.37-1-.23-.2c.07-.24.14-.48.19-.73l.3-.06L72.39,83l-.26-.15c0-.25.05-.5.06-.76l.29-.1V80.94l-.29-.1c0-.26,0-.51-.06-.76l.26-.15-.07-.39h3v1.6a.39.39,0,0,0,.39.39H78.3v.62h1v-.62h1.83v0h3.47c-.11-.66-.21-1.32-.33-2h3.09l-.06.39.26.15c0,.25-.06.5-.07.76l-.28.1V82l.28.1c0,.26,0,.51.07.76l-.26.15.18,1.06.3.06c.06.25.12.49.19.73l-.22.2.37,1h.29q.15.34.33.69l-.2.23.54.93.3,0c.14.21.28.42.44.63l-.15.26.69.82.28-.1.54.54-.1.28.83.7.25-.15.63.43,0,.3.93.54.23-.2q.35.18.69.33v.3l1,.37.19-.23.74.19,0,.3,1.06.19.15-.27c.25,0,.5.06.76.07l.1.28h1.08l.1-.28c.26,0,.51,0,.76-.07l.15.27,1.07-.19,0-.3.74-.19.19.23,1-.37v-.3a7.32,7.32,0,0,0,.69-.33l.23.2.94-.54-.06-.3c.22-.14.43-.28.63-.43l.26.15.83-.7-.11-.28q.29-.27.54-.54l.28.1.7-.82-.15-.26.43-.63.3,0,.54-.93-.19-.23c.11-.23.22-.46.32-.69h.3l.37-1-.23-.2c.07-.24.14-.48.19-.73l.3-.06L111.1,83l-.26-.15c0-.25,0-.5.06-.76l.29-.1V80.94l-.29-.1c0-.26,0-.51-.06-.76l.26-.15-.07-.39h1.43l-.07.39.26.15c0,.25-.05.5-.07.76l-.28.1V82l.28.1c0,.26,0,.51.07.76l-.26.15.19,1.06.29.06c.06.25.12.49.2.73l-.23.2.37,1h.29l.33.69-.19.23.54.93.29,0,.44.63-.15.26.69.82.29-.1.53.54-.1.28.83.7.26-.15c.2.15.41.29.62.43l0,.3.93.54.23-.2q.35.18.69.33v.3l1,.37.19-.23.74.19.05.3,1.06.19.15-.27c.25,0,.51.06.76.07l.1.28h1.08l.11-.28c.25,0,.5,0,.75-.07l.15.27,1.07-.19,0-.3.74-.19.19.23,1-.37v-.3a7.32,7.32,0,0,0,.69-.33l.23.2.94-.54,0-.3c.21-.14.42-.28.62-.43l.26.15.83-.7-.11-.28q.28-.27.54-.54l.28.1.7-.82-.15-.26c.15-.21.3-.42.43-.63l.3,0L135,87l-.19-.23c.11-.23.22-.46.32-.69h.3l.37-1-.23-.2c.07-.24.14-.48.2-.73l.29-.06L136.2,83l-.26-.15c0-.25.05-.5.07-.76l.28-.1V80.94l-.28-.1c0-.26,0-.51-.07-.76l.26-.15-.07-.39h5.76V68.27h0Zm-119-7.69H7.36V52.16l6-7.65h9.51Z"/>
  <path d="M73.45,29.56l3.67,1.76-.31.65.25.13-1,2,7.5,3.59,3,10.23,1.25-.36-2.64-9.12L118,54.18l1.28-2.66-.28-.13v0l2.71,1.3-.31.65,10.86,5.2.32-.65,5-10.42.32-.65-2.35-1.13.74-1.56,2.35,1.13.32-.66,2.49-5.21,2.81-5.86-10.87-5.2-.31.65-2.71-1.29.32-.66-2.16-1-.31.66-7.78-3.73.31-.65-2.15-1-.32.65-7.78-3.72.32-.66-2.16-1-.31.66-7.78-3.73.31-.65-2.15-1-.32.66L90.62,8.65,90.94,8,88.78,7l-.31.66L84.8,5.86l.31-.66L74.25,0l-.32.66h0l-3.16,6.6-2.14,4.47L71,12.85l-.74,1.56-2.36-1.12-.31.65L67,15.22,62.27,25l10.87,5.2Zm35.63,17.06,7.78,3.72v0l-7.78-3.73Zm-9.93-4.76,7.78,3.72v0l-7.78-3.72ZM89.21,37.1,97,40.83h0L89.2,37.12Zm-9.93-4.75,7.78,3.72v0l-7.78-3.73Z"/>
</svg>