<?xml version="1.0" encoding="utf-8"?>
<svg viewBox="0 0 144 321.9" xmlns="http://www.w3.org/2000/svg">
  <path d="M 135.176 143.775 L 122.906 173.655 C 120.833 181.413 123.054 179.559 122.562 184.663 C 120.114 189.807 112.351 213.832 108.374 213.832 L 108.374 228.231 C 108.374 242.149 105.15 253.431 101.174 253.431 C 95.21 253.431 90.062 262.647 90.062 270.6 C 92.812 270.788 96.145 269.515 97.208 271.079 C 97.788 271.679 98.543 273.393 98.708 274.496 C 99.442 279.393 100.881 286.089 99.669 290.452 L 102.85 290.829 C 102.85 290.829 107.1 310.412 89.725 313.037 C 63.084 317.063 64.167 286.246 64.167 286.246 L 67.432 286.633 C 67.412 286.344 67.4 286.042 67.405 285.712 C 67.603 284.54 67.941 283.74 68.413 283.332 C 68.478 283.229 68.571 283.121 68.686 283.013 C 69.213 282.519 70.09 282.138 70.644 282.162 C 73.849 281.293 76.048 278.351 75.974 275.031 C 74.718 271.338 72.194 268.629 69.134 267.691 C 68.49 266.756 67.133 265.723 65.233 264.724 C 61.686 262.857 57.729 261.583 53.743 261.119 C 51.283 260.832 48.758 260.759 46.85 259.361 L 46.85 288.663 L 45.522 288.663 L 45.522 258.001 C 45.452 257.902 45.378 257.808 45.312 257.701 C 42.289 252.899 38.767 248.399 35.916 243.491 C 33.117 238.674 30.899 233.526 29.174 228.232 L 14.774 228.232 C 10.797 228.232 7.574 225.008 7.574 221.032 C 7.574 215.068 9.186 210.232 11.174 210.232 C 11.264 210.682 11.775 205.877 11.698 202.894 C 11.621 199.911 11.573 200.411 11.174 199.432 C 11.174 191.479 17.621 185.032 25.574 185.032 L 25.574 170.633 C 25.574 164.668 32.021 159.833 39.974 159.833 C 52.436 159.914 48.791 160.081 50.634 145.583 C 52.269 133.181 54.695 121.359 57.684 111.232 C 55.598 111.029 55.405 93.95 57.254 73.072 C 60.249 28.33 49.562 19.039 53.489 18.59 L 99 12.413 C 101 15.413 103 20.413 99 22.413 C 96.667 22.496 96 23.413 93.677 23.68 C 93.16 23.842 92.628 24.02 92.094 24.205 C 90.064 24.912 88.02 25.738 86.705 26.321 L 81.87 33.848 C 81.792 36.59 82.58 39.347 83.175 41.031 C 84.037 47.091 84.951 53.046 85.915 58.891 C 87.192 66.639 86.375 73.579 89.094 82.487 C 90.146 85.933 91.385 89.006 92.012 92.535 C 92.795 96.947 93.449 101.382 93.975 105.832 C 96.842 110.9 98.304 121.139 97.576 131.031 C 100.876 135.663 101.835 139.876 100.122 153.415 L 99.667 165.913 C 101.081 168.901 102.365 171.214 103.534 172.994 L 111.144 177.999 C 112.544 177.368 113.526 175.863 114.249 175.101 C 115.282 174.146 116.9 171.955 118.468 170.569 L 132.374 140.164 L 136.291 142.289 L 136.291 143.497 L 135.176 143.775 Z" transform="matrix(-1, 0, 0, -1, 143.864992, 325.812718)"/>
</svg>