<svg width="451" height="303" xmlns="http://www.w3.org/2000/svg">

 <g>
  <title>Layer 1</title>
  <path id="svg_1" d="m2.68899,171.03771l12.27,-29.88c2.073,-7.758 -0.148,-5.904 0.344,-11.008c2.448,-5.144 10.211,-29.169 14.188,-29.169l0,-14.399c0,-13.918 3.224,-25.2 7.2,-25.2c5.964,0 11.112,-9.216 11.112,-17.169c-2.75,-0.188 -6.083,1.085 -7.146,-0.479c-0.58,-0.6 -1.335,-2.314 -1.5,-3.417c-0.734,-4.897 -2.173,-11.593 -0.961,-15.956l-3.181,-0.377c0,0 -4.25,-19.583 13.125,-22.208c26.641,-4.026 25.558,26.791 25.558,26.791l-3.265,-0.387c0.02,0.289 0.032,0.591 0.027,0.921c-0.198,1.172 -0.536,1.972 -1.008,2.38c-0.065,0.103 -0.158,0.211 -0.273,0.319c-0.527,0.494 -1.404,0.875 -1.958,0.851c-3.205,0.869 -5.404,3.811 -5.33,7.131c1.256,3.693 3.78,6.402 6.84,7.34c0.644,0.935 2.001,1.968 3.901,2.967c3.547,1.867 7.504,3.141 11.49,3.605c2.46,0.287 4.985,0.36 6.893,1.758l0,-29.302l1.328,0l0,30.662c0.07,0.099 0.144,0.193 0.21,0.3c3.023,4.802 6.545,9.302 9.396,14.21c2.799,4.817 5.017,9.965 6.742,15.259l14.4,0c3.977,0 7.2,3.224 7.2,7.2c0,5.964 -1.612,10.8 -3.6,10.8c-0.09,-0.45 -0.601,4.355 -0.524,7.338c0.077,2.983 0.125,2.483 0.524,3.462c0,7.953 -6.447,14.4 -14.4,14.4l0,14.399c0,5.965 -6.447,10.8 -14.4,10.8c-12.462,-0.081 -8.817,-0.248 -10.66,14.25c-1.635,12.402 -4.061,24.224 -7.05,34.351c2.086,0.203 2.279,17.282 0.43,38.16c-2.995,44.742 7.692,54.033 3.765,54.482l-45.511,6.177c-2,-3 -4,-8 0,-10c2.333,-0.083 3,-1 5.323,-1.267c0.517,-0.162 1.049,-0.34 1.583,-0.525c2.03,-0.707 4.074,-1.533 5.389,-2.116l4.835,-7.527c0.078,-2.742 -0.71,-5.499 -1.305,-7.183c-0.862,-6.06 -1.776,-12.015 -2.74,-17.86c-1.277,-7.748 -0.46,-14.688 -3.179,-23.596c-1.052,-3.446 -2.291,-6.519 -2.918,-10.048c-0.783,-4.412 -1.437,-8.847 -1.963,-13.297c-2.867,-5.068 -4.329,-15.307 -3.601,-25.199c-3.3,-4.632 -4.259,-8.845 -2.546,-22.384l0.455,-12.498c-1.414,-2.988 -2.698,-5.301 -3.867,-7.081l-7.61,-5.005c-1.4,0.631 -2.382,2.136 -3.105,2.898c-1.033,0.955 -2.651,3.146 -4.219,4.532l-13.906,30.405l-3.917,-2.125l0,-1.208l1.115,-0.278z"/>
  <path id="svg_2" d="m162.68899,171.03771l12.27,-29.88c2.073,-7.758 -0.148,-5.904 0.344,-11.008c2.448,-5.144 10.211,-29.169 14.188,-29.169l0,-14.399c0,-13.918 3.224,-25.2 7.2,-25.2c5.964,0 11.112,-9.216 11.112,-17.169c-2.75,-0.188 -6.083,1.085 -7.146,-0.479c-0.58,-0.6 -1.335,-2.314 -1.5,-3.417c-0.734,-4.897 -2.173,-11.593 -0.961,-15.956l-3.181,-0.377c0,0 -4.25,-19.583 13.125,-22.208c26.641,-4.026 25.558,26.791 25.558,26.791l-3.265,-0.387c0.02,0.289 0.032,0.591 0.027,0.921c-0.198,1.172 -0.536,1.972 -1.008,2.38c-0.065,0.103 -0.158,0.211 -0.273,0.319c-0.527,0.494 -1.404,0.875 -1.958,0.851c-3.205,0.869 -5.404,3.811 -5.33,7.131c1.256,3.693 3.78,6.402 6.84,7.34c0.644,0.935 2.001,1.968 3.901,2.967c3.547,1.867 7.504,3.141 11.49,3.605c2.46,0.287 4.985,0.36 6.893,1.758l0,-29.302l1.328,0l0,30.662c0.07,0.099 0.144,0.193 0.21,0.3c3.023,4.802 6.545,9.302 9.396,14.21c2.799,4.817 5.017,9.965 6.742,15.259l14.4,0c3.977,0 7.2,3.224 7.2,7.2c0,5.964 -1.612,10.8 -3.6,10.8c-0.09,-0.45 -0.601,4.355 -0.524,7.338c0.077,2.983 0.125,2.483 0.524,3.462c0,7.953 -6.447,14.4 -14.4,14.4l0,14.399c0,5.965 -6.447,10.8 -14.4,10.8c-12.462,-0.081 -8.817,-0.248 -10.66,14.25c-1.635,12.402 -4.061,24.224 -7.05,34.351c2.086,0.203 2.279,17.282 0.43,38.16c-2.995,44.742 7.692,54.033 3.765,54.482l-45.511,6.177c-2,-3 -4,-8 0,-10c2.333,-0.083 3,-1 5.323,-1.267c0.517,-0.162 1.049,-0.34 1.583,-0.525c2.03,-0.707 4.074,-1.533 5.389,-2.116l4.835,-7.527c0.078,-2.742 -0.71,-5.499 -1.305,-7.183c-0.862,-6.06 -1.776,-12.015 -2.74,-17.86c-1.277,-7.748 -0.46,-14.688 -3.179,-23.596c-1.052,-3.446 -2.291,-6.519 -2.918,-10.048c-0.783,-4.412 -1.437,-8.847 -1.963,-13.297c-2.867,-5.068 -4.329,-15.307 -3.601,-25.199c-3.3,-4.632 -4.259,-8.845 -2.546,-22.384l0.455,-12.498c-1.414,-2.988 -2.698,-5.301 -3.867,-7.081l-7.61,-5.005c-1.4,0.631 -2.382,2.136 -3.105,2.898c-1.033,0.955 -2.651,3.146 -4.219,4.532l-13.906,30.405l-3.917,-2.125l0,-1.208l1.115,-0.278z"/>
  <path id="svg_3" d="m322.68899,171.03771l12.27,-29.88c2.073,-7.758 -0.148,-5.904 0.344,-11.008c2.448,-5.144 10.211,-29.169 14.188,-29.169l0,-14.399c0,-13.918 3.224,-25.2 7.2,-25.2c5.964,0 11.112,-9.216 11.112,-17.169c-2.75,-0.188 -6.083,1.085 -7.146,-0.479c-0.58,-0.6 -1.335,-2.314 -1.5,-3.417c-0.734,-4.897 -2.173,-11.593 -0.961,-15.956l-3.181,-0.377c0,0 -4.25,-19.583 13.125,-22.208c26.641,-4.026 25.558,26.791 25.558,26.791l-3.265,-0.387c0.02,0.289 0.032,0.591 0.027,0.921c-0.198,1.172 -0.536,1.972 -1.008,2.38c-0.065,0.103 -0.158,0.211 -0.273,0.319c-0.527,0.494 -1.404,0.875 -1.958,0.851c-3.205,0.869 -5.404,3.811 -5.33,7.131c1.256,3.693 3.78,6.402 6.84,7.34c0.644,0.935 2.001,1.968 3.901,2.967c3.547,1.867 7.504,3.141 11.49,3.605c2.46,0.287 4.985,0.36 6.893,1.758l0,-29.302l1.328,0l0,30.662c0.07,0.099 0.144,0.193 0.21,0.3c3.023,4.802 6.545,9.302 9.396,14.21c2.799,4.817 5.017,9.965 6.742,15.259l14.4,0c3.977,0 7.2,3.224 7.2,7.2c0,5.964 -1.612,10.8 -3.6,10.8c-0.09,-0.45 -0.601,4.355 -0.524,7.338c0.077,2.983 0.125,2.483 0.524,3.462c0,7.953 -6.447,14.4 -14.4,14.4l0,14.399c0,5.965 -6.447,10.8 -14.4,10.8c-12.462,-0.081 -8.817,-0.248 -10.66,14.25c-1.635,12.402 -4.061,24.224 -7.05,34.351c2.086,0.203 2.279,17.282 0.43,38.16c-2.995,44.742 7.692,54.033 3.765,54.482l-45.511,6.177c-2,-3 -4,-8 0,-10c2.333,-0.083 3,-1 5.323,-1.267c0.517,-0.162 1.049,-0.34 1.583,-0.525c2.03,-0.707 4.074,-1.533 5.389,-2.116l4.835,-7.527c0.078,-2.742 -0.71,-5.499 -1.305,-7.183c-0.862,-6.06 -1.776,-12.015 -2.74,-17.86c-1.277,-7.748 -0.46,-14.688 -3.179,-23.596c-1.052,-3.446 -2.291,-6.519 -2.918,-10.048c-0.783,-4.412 -1.437,-8.847 -1.963,-13.297c-2.867,-5.068 -4.329,-15.307 -3.601,-25.199c-3.3,-4.632 -4.259,-8.845 -2.546,-22.384l0.455,-12.498c-1.414,-2.988 -2.698,-5.301 -3.867,-7.081l-7.61,-5.005c-1.4,0.631 -2.382,2.136 -3.105,2.898c-1.033,0.955 -2.651,3.146 -4.219,4.532l-13.906,30.405l-3.917,-2.125l0,-1.208l1.115,-0.278z"/>
 </g>
</svg>