<svg viewBox="0 0 1280 640" xmlns="http://www.w3.org/2000/svg">
  <g transform="matrix(0.099935, 0, 0, -0.099581, 0.828482, 639.89924)">
    <path d="M 2581 5119 L 2040 4846 L 2040 4888 C 2040 4927 2037 4931 1998 4951 C 1927 4987 1825 4963 1778 4899 C 1761 4876 1757 4847 1749 4684 C 1745 4580 1739 4477 1737 4454 C 1734 4421 1708 4379 1596 4222 C 1521 4116 1457 4024 1454 4017 C 1452 4010 1458 3995 1470 3985 C 1481 3975 1490 3959 1490 3948 C 1490 3938 1496 3930 1504 3930 C 1512 3930 1522 3925 1525 3920 C 1529 3914 1349 3654 1126 3341 C 853 2958 722 2767 726 2756 C 731 2743 748 2740 808 2740 L 884 2740 L 811 2666 C 771 2625 739 2588 741 2583 C 743 2578 933 2387 1164 2159 L 1582 1745 L 1713 1740 L 1843 1735 L 1862 1680 C 1879 1631 1879 1622 1866 1600 C 1850 1572 1860 1540 1884 1540 C 1893 1540 1901 1515 1909 1465 C 1915 1424 1930 1370 1942 1345 L 1965 1301 L 2177 1300 L 2388 1300 L 2408 1333 C 2426 1364 2442 1420 2455 1501 C 2458 1522 2467 1543 2475 1550 C 2492 1564 2495 1596 2480 1605 C 2475 1608 2470 1640 2470 1674 L 2470 1737 L 2523 1744 C 2551 1747 2651 1750 2744 1750 C 2900 1750 2912 1749 2907 1733 C 2854 1545 2836 1412 2846 1285 C 2888 750 3271 335 3795 253 C 4152 198 4515 326 4771 597 C 5043 886 5140 1323 5015 1697 C 5001 1737 4990 1775 4990 1780 C 4990 1787 5042 1790 5132 1788 L 5275 1785 L 5301 1705 C 5316 1659 5324 1621 5319 1615 C 5305 1601 5308 1582 5329 1552 C 5353 1518 5365 1438 5350 1410 C 5340 1392 5344 1385 5374 1358 C 5394 1340 5410 1320 5410 1313 C 5410 1303 5454 1300 5624 1300 C 5829 1300 5839 1301 5845 1320 C 5848 1331 5863 1349 5877 1360 C 5898 1376 5901 1385 5896 1412 C 5889 1447 5908 1560 5921 1560 C 5926 1560 5934 1569 5940 1579 C 5947 1594 5946 1602 5936 1612 C 5927 1621 5921 1655 5919 1704 L 5915 1781 L 5948 1801 L 5980 1822 L 5980 1728 L 5980 1635 L 6041 1568 L 6102 1500 L 7114 1500 L 8127 1500 L 8153 1530 L 8180 1560 L 8505 1560 L 8830 1560 L 8857 1530 L 8883 1500 L 9019 1500 L 9155 1501 L 9198 1539 L 9240 1578 L 9240 1684 L 9240 1790 L 9314 1790 L 9387 1790 L 9360 1713 C 9225 1330 9322 888 9606 590 C 9953 227 10468 139 10920 365 C 11256 534 11487 877 11519 1257 C 11533 1416 11507 1607 11455 1743 C 11447 1763 11440 1783 11440 1785 C 11440 1788 11500 1790 11574 1790 C 11697 1790 11870 1806 12445 1871 L 12625 1891 L 12712 1983 L 12799 2075 L 12800 2211 C 12800 2337 12798 2348 12779 2366 C 12767 2376 12754 2395 12749 2408 C 12741 2429 12736 2430 12606 2430 L 12471 2430 L 12497 2506 L 12523 2582 L 12502 2656 C 12491 2696 12485 2731 12488 2734 C 12491 2737 12521 2740 12556 2740 L 12618 2740 L 12624 2783 C 12627 2806 12666 3067 12710 3363 C 12754 3658 12790 3913 12790 3928 C 12790 3954 12428 4875 12410 4893 C 12406 4898 12176 4962 11900 5036 L 11398 5170 L 8042 5170 L 4685 5170 L 4608 5105 L 4531 5040 L 4391 5040 L 4250 5040 L 4250 5080 L 4250 5120 L 4171 5120 C 4077 5120 3960 5120 3960 5120 L 3851 5120 C 3765 5120 3494 5122 3494 5122 C 3366 5119 3131 5120 3131 5120 C 3036 5120 2728 5122 2728 5122 L 2581 5119 Z M 5894 1758 C 5905 1714 5900 1639 5884 1615 C 5871 1595 5870 1587 5880 1575 C 5901 1549 5884 1454 5852 1425 C 5829 1403 5827 1397 5838 1380 C 5844 1369 5850 1359 5850 1358 C 5850 1356 5749 1355 5625 1355 C 5501 1355 5400 1356 5400 1358 C 5400 1360 5405 1370 5410 1380 C 5418 1395 5415 1404 5396 1425 C 5369 1454 5352 1546 5369 1563 C 5386 1580 5382 1611 5361 1617 C 5348 1620 5337 1641 5325 1688 C 5315 1725 5305 1761 5302 1768 C 5299 1777 5361 1780 5593 1780 L 5888 1780 L 5894 1758 Z M 2452 1683 C 2456 1636 2453 1622 2438 1611 C 2418 1596 2414 1565 2431 1554 C 2443 1547 2436 1464 2417 1399 L 2405 1359 L 2178 1357 L 1951 1355 L 1941 1395 C 1915 1497 1910 1540 1922 1560 C 1932 1576 1931 1583 1914 1602 C 1902 1615 1886 1651 1877 1683 L 1861 1740 L 2155 1740 L 2448 1740 L 2452 1683 Z"/>
  </g>
</svg>