<?xml version="1.0" encoding="utf-8"?>
<svg viewBox="296.192 44.406 72.29 27.389" xmlns="http://www.w3.org/2000/svg">
  <path d="M 301.479 57.199 L 298.487 58.105 L 298.003 60.814 L 300.507 62.622 L 303.287 63.107 L 302.314 68.597 L 307.804 69.572 L 314.199 65.052 L 352.565 71.795 L 363.963 71.03 L 354.164 66.65 L 362.922 66.65 L 365.701 61.09 L 365.701 55.529 L 368.482 55.529 L 368.482 52.748 L 365.701 52.748 L 362.922 49.969 L 360.141 49.969 C 360.141 48.439 359.598 47.129 358.508 46.043 C 357.422 44.953 356.112 44.406 354.582 44.406 C 353.052 44.406 351.744 44.953 350.656 46.043 C 349.566 47.129 349.021 48.439 349.021 49.969 L 344.015 49.969 C 344.015 48.439 343.472 47.129 342.382 46.043 C 341.292 44.953 339.982 44.406 338.452 44.406 C 336.922 44.406 335.62 44.953 334.528 46.043 C 333.442 47.129 332.895 48.439 332.895 49.969 L 331.575 49.969 C 331.575 48.439 331.03 47.129 329.94 46.043 C 328.852 44.953 327.542 44.406 326.012 44.406 C 324.484 44.406 323.176 44.953 322.086 46.043 C 320.997 47.129 320.454 48.439 320.454 49.969 L 315.656 49.969 C 315.656 48.439 315.113 47.129 314.023 46.043 C 312.933 44.953 311.623 44.406 310.095 44.406 C 308.567 44.406 307.257 44.953 306.167 46.043 C 305.08 47.129 304.535 48.439 304.535 49.969 L 301.685 49.969 L 301.685 52.748 L 296.192 52.748 L 296.192 55.531 L 301.685 55.531 L 301.479 57.199 Z M 344.85 58.311 L 351.801 58.311 L 351.801 66.029 L 345.963 64.915 L 346.242 63.248 L 344.849 62.965 L 344.849 58.311 L 344.85 58.311 Z M 320.169 58.34 L 326.779 58.311 L 326.779 55.531 L 335.119 55.531 L 335.119 58.311 L 340.68 58.311 L 340.68 62.156 L 320.169 58.34 Z M 305.441 55.531 L 310.097 55.531 L 310.097 56.434 L 305.441 55.531 Z" transform="matrix(-1, 0, 0, -1, 664.674011, 116.200996)"/>
</svg>