<?xml version="1.0" encoding="utf-8"?>
<svg viewBox="0 0 193.18 50.94" xmlns="http://www.w3.org/2000/svg">
  <path d="M 193.18 36.43 L 193 38.32 L 192.73 38.45 L 186.36 37.99 L 186.09 38.27 L 150.37 35.72 L 150.37 35.86 C 150.344 36.007 150.208 36.108 150.06 36.09 L 149.74 36.09 L 149.56 36.09 L 149.35 36.09 L 133.42 34.92 L 133.42 34.98 L 133.21 34.98 L 133.21 34.92 L 132.3 34.85 L 132.09 34.85 L 131.19 34.78 L 130.95 34.78 C 130.875 34.773 130.805 34.741 130.75 34.69 C 130.702 34.639 130.68 34.569 130.69 34.5 L 130.69 34.32 L 120.05 33.55 C 120.059 33.583 120.059 33.617 120.05 33.65 C 119.661 33.986 119.209 34.241 118.72 34.4 L 118.53 34.4 L 118.44 34.4 L 113.14 34.01 L 111.19 34.61 L 111.19 36.69 C 111.185 36.823 111.073 36.926 110.94 36.92 L 108.75 36.92 L 108.75 37.73 C 108.739 37.864 108.624 37.966 108.49 37.96 L 103.17 37.96 C 103.083 37.961 103.001 37.92 102.95 37.85 L 102.5 37.2 L 92.7 40.2 L 92.27 40.2 L 92.27 42.92 C 92.241 43.045 92.129 43.133 92 43.13 L 86 43.13 C 85.904 43.135 85.813 43.09 85.76 43.01 L 85.05 42.01 L 84.54 42.8 C 84.709 42.8 84.815 42.983 84.731 43.13 C 84.691 43.198 84.619 43.24 84.54 43.24 L 70.07 43.24 L 70.07 44.16 C 70.08 44.226 70.08 44.294 70.07 44.36 C 69.986 44.694 69.684 44.926 69.34 44.92 L 65.73 44.92 C 65.735 44.96 65.735 45 65.73 45.04 L 65.73 46.04 C 65.735 46.09 65.735 46.14 65.73 46.19 C 65.753 46.56 65.479 46.883 65.11 46.92 L 63 46.92 L 63 50.92 L 60.6 50.92 L 57.6 48.57 L 57.6 46.92 L 55.91 46.92 C 55.58 46.887 55.323 46.621 55.3 46.29 C 55.3 46.29 55.3 46.19 55.3 46.14 L 55.3 45.14 C 55.3 45.14 55.3 45.06 55.3 45.02 L 51.56 45.02 C 51.19 45.002 50.889 44.718 50.85 44.35 C 50.845 44.303 50.845 44.257 50.85 44.21 L 50.85 42.11 L 51.5 42.11 L 51.5 41.42 L 51.42 41.42 C 51.125 41.437 50.871 41.214 50.85 40.92 L 50.85 40.18 L 48.61 39.65 L 48.61 37.28 L 48.08 37.28 L 48.08 38.67 L 48.29 38.67 L 48.29 39.62 L 26.11 39.62 L 25.66 38.67 L 26.3 38.67 L 26.3 38.36 L 26.3 38.28 L 26.78 34.92 L 25.53 34.92 C 25.368 34.92 25.267 34.745 25.348 34.605 C 25.386 34.54 25.455 34.5 25.53 34.5 L 26.83 34.5 L 27.45 29.66 L 32.36 27.92 L 48.58 26.67 L 48.58 26.92 L 48.65 26.92 L 48.65 26.69 L 51.13 26.69 L 51.13 25.58 L 45.5 25.58 L 31.35 26.77 L 8.06 26.77 L 5.45 26.04 L 4.83 20.09 C 2.24 19.96 0.83 19.24 0.24 18.09 C 0.24 18.09 0.24 18.09 0.24 18.09 C 0.145 17.893 0.074 17.684 0.03 17.47 L 4.67 16.64 L 10.81 15.32 L 10.64 15.11 C 10.255 14.495 9.978 13.818 9.82 13.11 C 9.776 12.859 9.746 12.605 9.73 12.35 C 9.687 12.344 9.643 12.344 9.6 12.35 C 9.6 12.24 9.6 12.14 9.6 12.03 C 9.6 11.92 9.6 11.81 9.6 11.7 L 9.72 11.7 C 9.754 10.718 10.062 9.765 10.61 8.95 L 10.66 8.89 C 11.438 7.798 12.525 6.962 13.78 6.49 L 30 0 L 114.13 0 L 137.69 11.47 C 140 12.59 141.1 14.69 140.49 16.83 C 140.397 17.151 140.266 17.46 140.1 17.75 L 144 19.27 L 145.06 19.69 L 141.34 22.92 L 127.48 23.92 L 107.92 25.5 L 107.92 26.69 L 110.45 27.78 L 118.88 28.46 L 119 28.46 L 119.29 28.46 C 119.793 28.842 120.192 29.344 120.45 29.92 L 131.05 30.78 L 131.05 30.63 C 131.08 30.486 131.213 30.387 131.36 30.4 L 149.76 31.87 L 150 31.87 L 150.49 31.87 C 150.567 31.868 150.641 31.901 150.69 31.96 C 150.739 32.006 150.762 32.074 150.75 32.14 L 150.75 32.32 L 186.42 35.23 L 186.6 35.69 L 192.96 36.2 L 193.18 36.43 Z M 82.06 41.17 Z" transform="matrix(-1, 0, 0, -1, 193.209994, 50.919999)"/>
</svg>