<?xml version="1.0" encoding="utf-8"?>
<svg viewBox="0 0 78.18 34.36" xmlns="http://www.w3.org/2000/svg">
  <path d="M 34.826 3.455 C 34.826 3.455 53.006 19.245 56.766 23.755 C 60.526 28.265 58.906 32.185 58.906 32.185 C 58.906 32.185 56.966 35.185 48.436 23.755 C 43.543 17.231 38.997 10.455 34.816 3.455" transform="matrix(-1, 0, 0, -1, 94.069063, 35.995495)"/>
  <path d="M 0 18.837 C 1.591 19.964 3.543 20.463 5.48 20.237 C 8.98 19.937 30.78 15.497 43.57 12.387 C 56.36 9.277 74.83 4.457 76.82 2.917 C 78.81 1.377 78 -0.053 78 -0.053 C 78 -0.053 52.67 4.347 35.57 8.347 C 18.47 12.347 0 18.837 0 18.837" transform="matrix(-1, 0, 0, -1, 78.163118, 20.23721)"/>
  <path d="M 52.17 19.483 C 52.17 19.483 49.73 29.553 51.04 30.123 C 52.35 30.693 52.96 30.923 55.25 30.123 C 57.54 29.323 59.63 28.513 59.63 28.513" transform="matrix(-1, 0, 0, -1, 110.283487, 50.123322)"/>
  <path d="M 43.327 31.466 L 69.477 25.726 C 69.477 25.726 71.247 28.396 70.407 28.916 C 66.663 31.133 62.522 32.597 58.217 33.226 C 51.217 34.376 47.717 34.526 46.127 34.226 C 44.537 33.926 43.327 31.436 43.327 31.436" transform="matrix(-1, 0, 0, -1, 113.960199, 60.086118)"/>
</svg>