<?xml version="1.0" encoding="utf-8"?>
<svg viewBox="0 0 88.79 35.81" xmlns="http://www.w3.org/2000/svg">
  <path d="M 88.51 20.4 L 86.19 20.4 L 85.79 21.15 L 85.87 21.15 C 85.964 21.152 86.05 21.201 86.1 21.28 C 86.144 21.364 86.144 21.465 86.1 21.55 L 84.73 24.45 L 61.3 27.16 L 56.24 34.36 C 56.036 34.655 55.699 34.831 55.34 34.83 L 36.9 34.83 L 36.9 35.48 C 36.906 35.637 36.777 35.766 36.62 35.76 L 9.7 35.76 C 9.543 35.766 9.414 35.637 9.42 35.48 L 9.42 34.83 L 6.32 34.83 C 5.726 34.825 5.241 34.353 5.22 33.76 L 5.22 26.86 L 4.85 26.86 L 4.85 29.76 C 4.85 30.064 4.604 30.31 4.3 30.31 L 1.3 30.31 C 1.012 30.289 0.789 30.049 0.79 29.76 L 0.79 16.58 C 0.79 16.386 0.898 16.209 1.07 16.12 C 1.07 16.12 1.07 16.12 1.07 16.12 C 1.146 16.076 1.232 16.052 1.32 16.05 L 4.32 16.05 C 4.624 16.05 4.87 16.296 4.87 16.6 L 4.87 21.15 L 5.24 21.15 L 5.24 16.23 C 5.245 16.079 5.369 15.96 5.52 15.96 L 6.52 15.96 L 6.52 15.69 L 0.28 15.69 C 0.205 15.691 0.133 15.662 0.08 15.61 C 0.028 15.556 -0.001 15.484 0 15.41 L 0 11.41 L 0 11.41 L 4 10.31 L 4.94 10.04 C 5.064 10.004 5.196 10.058 5.26 10.17 L 5.95 11.4 L 6.52 12.4 L 6.52 10.97 L 11.18 9.24 C 11.18 9.07 11.18 8.91 11.18 8.74 L 11.23 8.74 C 11.23 8.59 11.23 8.43 11.23 8.27 C 11.23 8.11 11.23 7.76 11.23 7.51 L 11.29 7.02 L 11.34 7.02 C 11.399 6.61 11.489 6.206 11.61 5.81 C 11.66 5.65 11.72 5.5 11.77 5.34 L 11.82 5.34 C 11.969 4.956 12.142 4.581 12.34 4.22 C 12.42 4.07 12.51 3.93 12.6 3.79 C 12.826 3.439 13.077 3.105 13.35 2.79 L 13.63 2.49 L 13.69 2.43 C 13.985 2.139 14.299 1.868 14.63 1.62 L 14.74 1.54 L 15.04 1.33 C 15.384 1.103 15.745 0.902 16.12 0.73 L 16.58 0.53 L 16.58 0.58 C 16.963 0.425 17.357 0.301 17.76 0.21 L 18.25 0.11 L 18.25 0.16 C 18.656 0.088 19.068 0.051 19.48 0.05 L 19.48 0 L 19.97 0 C 20.316 0.028 20.66 0.078 21 0.15 L 21.48 0.26 C 21.879 0.366 22.27 0.5 22.65 0.66 L 23.1 0.87 L 23.1 0.92 C 23.471 1.098 23.826 1.309 24.16 1.55 L 24.23 1.55 L 24.42 1.7 L 24.56 1.8 C 24.879 2.062 25.18 2.346 25.46 2.65 C 25.58 2.77 25.68 2.89 25.79 3.02 C 26.048 3.335 26.282 3.669 26.49 4.02 L 26.54 4.02 L 26.78 4.46 C 26.969 4.827 27.129 5.208 27.26 5.6 L 27.31 5.6 C 27.36 5.76 27.41 5.91 27.45 6.07 C 27.522 6.319 27.579 6.573 27.62 6.83 L 37.2 7.83 L 44.62 7.83 C 45.106 7.824 45.508 8.205 45.53 8.69 L 45.83 8.69 L 64.44 6.75 C 64.497 6.412 64.573 6.078 64.67 5.75 C 64.67 5.59 64.77 5.44 64.83 5.28 C 64.97 4.892 65.144 4.517 65.35 4.16 C 65.43 4.01 65.51 3.87 65.6 3.73 C 65.822 3.379 66.07 3.045 66.34 2.73 L 66.62 2.43 L 66.62 2.37 C 66.911 2.079 67.222 1.808 67.55 1.56 L 67.65 1.48 L 67.95 1.27 C 68.289 1.079 68.64 0.908 69 0.76 L 69.45 0.56 L 69.45 0.61 C 69.837 0.456 70.235 0.333 70.64 0.24 L 71.13 0.14 L 71.13 0.19 C 71.536 0.118 71.948 0.081 72.36 0.08 L 72.36 0.03 L 72.86 0.03 C 73.273 0.046 73.684 0.092 74.09 0.17 L 74.57 0.28 C 74.968 0.388 75.359 0.521 75.74 0.68 L 76.19 0.89 L 76.19 0.94 C 76.56 1.121 76.914 1.331 77.25 1.57 L 77.32 1.57 L 77.51 1.72 L 77.64 1.82 C 77.959 2.082 78.26 2.366 78.54 2.67 C 78.65 2.79 78.76 2.91 78.86 3.04 C 79.119 3.357 79.356 3.691 79.57 4.04 C 79.658 4.182 79.738 4.329 79.81 4.48 C 79.998 4.849 80.162 5.23 80.3 5.62 C 80.36 5.78 80.4 5.93 80.45 6.09 C 80.565 6.485 80.646 6.89 80.69 7.3 C 80.69 7.46 80.69 7.63 80.69 7.8 C 80.69 7.96 80.69 8.12 80.69 8.28 C 80.69 8.44 80.69 8.79 80.69 9.04 L 80.63 9.53 L 80.58 9.53 C 80.521 9.936 80.431 10.337 80.31 10.73 C 80.31 10.89 80.21 11.04 80.15 11.2 L 82.27 11.59 L 88.67 12.9 L 88.67 20.12 C 88.678 20.237 88.615 20.347 88.51 20.4 Z M 27.64 8.59 C 27.64 8.73 27.64 8.88 27.64 9.02 L 31.77 9.02 L 27.64 8.59 Z M 64.22 8.76 C 64.22 8.69 64.22 8.62 64.22 8.54 L 59.72 9.01 L 64.2 9.01 C 64.195 8.93 64.195 8.85 64.2 8.77 L 64.22 8.76 Z" transform="matrix(-1, 0, 0, -1, 88.670648, 35.760201)"/>
</svg>