<?xml version="1.0" encoding="utf-8"?>
<svg viewBox="0 0 129.84 35.81" xmlns="http://www.w3.org/2000/svg">
  <path d="M 129.78 35.81 C 130.258 33.562 129.099 31.286 127 30.35 C 125.212 29.611 123.863 28.092 123.34 26.23 C 123.205 25.41 122.48 24.818 121.65 24.85 C 117.94 24.55 114.24 24.14 110.53 23.94 C 94.73 23.07 78.92 23.45 63.12 23.94 C 44.31 24.51 25.51 25.2 6.71 25.8 C 4.618 25.699 2.706 26.978 2 28.95 C 1.38 30.5 0.74 32.04 0 33.8 C 43.45 34.35 86.66 33.23 129.78 35.8" transform="matrix(-1, 0, 0, -1, 129.886965, 59.230409)"/>
  <path d="M 55.146 24.53 L 58.146 23.77 C 58.366 21.53 58.306 21.53 56.366 21.15 C 56.076 21.08 55.636 20.68 55.636 20.42 C 55.636 17.98 55.636 15.53 55.636 13.08 C 55.636 12.94 55.846 12.79 55.986 12.61 C 57.521 14.038 58.232 16.144 57.876 18.21 L 58.656 18.05 C 58.656 17.14 58.606 16.23 58.656 15.32 C 58.656 15.02 59.036 14.75 59.236 14.47 C 59.396 14.74 59.666 15.01 59.686 15.3 C 59.686 16.21 59.686 17.13 59.686 18.05 L 60.296 18.05 C 60.356 17.56 60.416 17.05 60.466 16.56 C 60.566 15.64 60.036 14.49 61.556 14.12 C 61.796 14.06 61.856 13.24 62.036 12.66 C 63.666 12.91 64.216 11.92 64.336 10.48 C 64.336 10.18 64.556 9.89 64.556 9.59 C 64.606 7.93 65.556 7.38 67.056 7.59 C 68.556 7.8 69.136 7.16 68.946 5.48 L 59.696 5.48 C 59.696 5.32 59.696 5.16 59.696 5 C 60.126 5 60.566 4.87 60.996 4.87 C 63.443 4.87 65.893 4.87 68.346 4.87 C 69.166 4.87 69.776 4.71 69.506 3.45 L 60.576 3.45 C 60.986 3.1 61.086 2.94 61.186 2.94 C 66.52 2.64 71.876 2.353 77.256 2.08 C 77.416 2.08 77.566 2.08 77.716 2.08 C 78.416 2.08 79.056 2.08 79.056 1.08 C 79.056 0.08 78.386 0.13 77.706 0.08 L 55.226 0 L 44.986 0 C 44.436 0 43.896 0.05 43.136 0.08 C 43.896 3.28 44.616 6.29 45.336 9.3 C 45.396 9.54 45.466 9.79 45.526 10.04 C 46.126 12.51 46.976 13.04 49.526 12.67 C 50.921 12.512 52.326 12.478 53.726 12.57 C 54.133 12.736 54.427 13.098 54.506 13.53 C 54.576 16.01 54.506 18.53 54.506 20.9 C 51.866 21.31 51.866 21.31 51.896 23.76 L 55.146 24.53 M 54.676 10.3 C 53.776 10.362 52.873 10.342 51.976 10.24 C 51.686 10.19 51.526 9.51 51.306 9.11 L 54.676 8.62 L 54.676 10.3 Z M 57.516 8.76 C 57.816 8.76 58.176 8.66 58.416 8.76 C 58.746 8.975 59.046 9.234 59.306 9.53 C 59.006 9.78 58.736 10.17 58.406 10.24 C 57.812 10.355 57.201 10.355 56.606 10.24 C 56.286 10.17 56.046 9.74 55.766 9.48 C 56.035 9.201 56.338 8.955 56.666 8.75 C 56.964 8.694 57.269 8.694 57.566 8.75 M 47.766 10.35 C 47.476 9.22 47.616 8.61 48.766 8.75 C 49.366 8.83 50.496 8.37 50.276 9.57 C 49.996 11.08 48.706 9.97 47.796 10.35 M 60.486 10.6 C 60.036 8.95 60.576 8.6 61.596 8.74 C 62.206 8.81 63.276 8.63 62.846 9.58 C 62.616 10.12 61.406 10.23 60.486 10.58" transform="matrix(-1, 0, 0, -1, 122.192003, 24.530001)"/>
  <path d="M 87.076 24.501 C 87.177 23.966 87.244 23.425 87.276 22.881 C 87.276 18.291 87.276 13.711 87.326 9.121 C 87.326 8.651 87.716 7.871 88.066 7.781 C 89.066 7.511 89.066 8.341 89.066 9.021 C 89.066 13.661 89.066 18.301 89.066 22.941 C 89.109 23.464 89.196 23.983 89.326 24.491 L 89.846 24.491 C 89.896 23.931 90.006 23.371 90.006 22.821 C 90.006 18.281 90.006 13.741 90.006 9.211 C 90.006 8.101 90.306 7.651 91.476 7.701 C 93.406 7.781 95.336 7.701 97.386 7.701 C 97.446 7.231 97.476 6.851 97.536 6.471 C 97.746 5.151 97.256 4.691 95.866 4.721 C 92.046 4.791 88.226 4.721 84.406 4.721 C 81.756 4.721 81.756 4.721 82.046 7.721 C 82.919 7.771 83.793 7.771 84.666 7.721 C 86.066 7.551 86.396 8.161 86.376 9.461 C 86.306 13.891 86.376 18.331 86.376 22.761 C 86.376 23.341 86.436 23.911 86.476 24.491 L 87.106 24.491" transform="matrix(-1, 0, 0, -1, 179.502337, 29.220633)"/>
  <path d="M 31.106 17.02 L 21.026 17.02 C 21.203 18.037 21.454 19.04 21.776 20.02 C 22.075 20.432 22.539 20.692 23.046 20.73 C 24.126 20.83 25.226 20.73 26.316 20.73 C 26.316 20.91 26.316 21.09 26.316 21.26 L 22.316 21.26 C 22.316 21.4 22.226 21.54 22.186 21.67 C 22.367 21.904 22.564 22.124 22.776 22.33 C 23.192 22.743 23.656 23.105 24.156 23.41 C 24.742 23.774 25.401 24.003 26.086 24.08 C 26.746 24.08 27.726 23.91 27.996 23.46 C 28.647 22.288 29.964 21.651 31.286 21.87 C 33.766 22.16 36.196 22.77 38.656 23.21 C 39.316 23.33 39.996 23.36 40.656 23.42 C 40.656 23.25 40.766 23.08 40.816 22.9 C 40.371 22.638 39.902 22.417 39.416 22.24 C 37.096 21.64 34.786 21 32.416 20.56 C 30.856 20.27 30.266 19.65 30.896 18.12 C 30.986 17.752 31.043 17.378 31.066 17" transform="matrix(-1, 0, 0, -1, 61.842004, 41.080002)"/>
  <path d="M 101.116 24.016 C 102.336 23.786 103.546 23.536 104.766 23.326 C 105.986 23.116 107.086 22.846 108.046 24.116 C 108.666 24.946 110.676 24.116 111.206 22.856 C 111.432 22.148 111.599 21.422 111.706 20.686 L 106.426 20.686 C 106.726 22.116 105.776 22.376 104.656 22.586 C 103.536 22.796 102.226 23.186 101.016 23.496 C 101.016 23.666 101.076 23.836 101.116 24.016" transform="matrix(-1, 0, 0, -1, 212.722003, 45.135777)"/>
  <path d="M 26.106 22.84 C 24.61 22.64 23.142 22.26 21.736 21.71 C 20.138 20.975 18.382 20.649 16.626 20.76 C 16.378 20.763 16.131 20.787 15.886 20.83 C 15.886 22.62 16.886 23.83 18.306 23.78 C 18.506 23.78 18.806 23.83 18.896 23.72 C 20.616 21.55 22.686 22.97 24.626 23.16 C 25.096 23.16 25.566 23.29 26.026 23.35 C 26.026 23.18 26.026 23.01 26.106 22.84" transform="matrix(-1, 0, 0, -1, 41.992001, 44.530133)"/>
  <path d="M 117.966 24.511 C 119.276 24.511 120.596 24.511 121.966 24.511 C 122.256 24.511 122.546 24.161 122.836 23.971 C 122.556 23.761 122.276 23.381 121.986 23.371 C 119.256 23.321 116.516 23.321 113.786 23.371 C 113.496 23.371 113.206 23.751 112.916 23.951 C 113.196 24.161 113.466 24.521 113.756 24.531 C 115.176 24.591 116.596 24.531 118.016 24.531" transform="matrix(-1, 0, 0, -1, 235.752002, 47.891167)"/>
  <path d="M 9.166 23.23 C 10.486 23.23 11.816 23.23 13.166 23.23 C 13.426 23.23 13.686 22.92 13.946 22.75 C 13.706 22.54 13.476 22.16 13.236 22.15 C 10.436 22 7.636 21.9 4.826 21.82 C 4.616 21.82 4.386 22.12 4.166 22.29 C 4.416 22.47 4.656 22.79 4.926 22.81 C 6.336 22.95 7.766 23.01 9.196 23.1 L 9.196 23.26" transform="matrix(-1, 0, 0, -1, 18.112, 45.080003)"/>
  <path d="M 86.806 17.611 C 86.879 17.205 86.923 16.794 86.936 16.381 C 86.936 15.671 87.056 15.201 87.936 15.161 C 88.176 15.161 88.396 14.771 88.626 14.561 C 88.356 14.391 88.096 14.091 87.826 14.081 C 86.556 14.031 85.286 14.021 84.006 14.081 C 83.686 14.081 83.376 14.401 83.066 14.581 C 83.356 14.781 83.666 15.191 83.936 15.161 C 85.386 15.011 85.476 15.841 85.426 16.951 C 85.366 18.241 85.426 19.541 85.426 20.841 L 85.806 20.841 L 85.806 15.631 L 86.186 15.631 C 86.266 16.291 86.356 16.951 86.436 17.631 L 86.806 17.631" transform="matrix(-1, 0, 0, -1, 171.692004, 34.880665)"/>
  <path d="M 60.526 8.458 C 59.696 7.928 59.206 7.378 58.806 7.458 C 58.406 7.538 58.056 8.178 57.686 8.578 C 58.086 8.948 58.466 9.578 58.886 9.578 C 59.306 9.578 59.736 9.028 60.526 8.448" transform="matrix(-1, 0, 0, -1, 118.212007, 17.028206)"/>
  <path d="M 70.886 15.875 L 70.886 14.195 L 67.516 14.685 C 67.736 15.085 67.896 15.765 68.186 15.815 C 69.083 15.917 69.986 15.937 70.886 15.875" transform="matrix(-1, 0, 0, -1, 138.401995, 30.105158)"/>
  <path d="M 64.736 14.238 C 64.442 14.182 64.14 14.182 63.846 14.238 C 63.513 14.44 63.207 14.686 62.936 14.968 C 63.216 15.228 63.456 15.658 63.776 15.728 C 64.37 15.848 64.982 15.848 65.576 15.728 C 65.906 15.668 66.176 15.278 66.476 15.028 C 66.232 14.732 65.949 14.47 65.636 14.248 C 65.396 14.118 65.036 14.248 64.736 14.248" transform="matrix(-1, 0, 0, -1, 129.412004, 30.008223)"/>
  <path d="M 72.11 15.749 C 73.02 15.369 74.31 16.479 74.59 14.969 C 74.81 13.769 73.68 14.229 73.08 14.159 C 71.96 14.009 71.82 14.619 72.08 15.749" transform="matrix(-1, 0, 0, -1, 146.586291, 29.919342)"/>
  <path d="M 59.484 15.757 C 60.404 15.387 61.614 15.277 61.844 14.757 C 62.274 13.757 61.204 13.987 60.594 13.917 C 59.594 13.817 59.034 14.127 59.484 15.777" transform="matrix(-1, 0, 0, -1, 121.269876, 29.677119)"/>
</svg>